<svg xmlns="http://www.w3.org/2000/svg" viewBox="0 0 1536 1024" width="512" height="341">
  <rect x="0" y="0" width="1536" height="1024" fill="#f8f9fa"/>
  <rect x="1449" y="44" width="45" height="22" fill="none" stroke="#333" stroke-width="2"/>
  <text x="1457" y="64" font-family="monospace" font-size="14" fill="#666">45x22</text>
  <rect x="1451" y="40" width="40" height="36" fill="none" stroke="#333" stroke-width="2"/>
  <text x="1459" y="60" font-family="monospace" font-size="14" fill="#666">40x36</text>
  <rect x="1452" y="38" width="38" height="24" fill="none" stroke="#333" stroke-width="2"/>
  <text x="1460" y="58" font-family="monospace" font-size="14" fill="#666">38x24</text>
  <rect x="1452" y="38" width="38" height="34" fill="none" stroke="#333" stroke-width="2"/>
  <text x="1460" y="58" font-family="monospace" font-size="14" fill="#666">38x34</text>
  <rect x="1454" y="36" width="34" height="26" fill="none" stroke="#333" stroke-width="2"/>
  <text x="1462" y="56" font-family="monospace" font-size="14" fill="#666">34x26</text>
  <rect x="1454" y="36" width="34" height="36" fill="none" stroke="#333" stroke-width="2"/>
  <text x="1462" y="56" font-family="monospace" font-size="14" fill="#666">34x36</text>
  <rect x="1457" y="34" width="29" height="28" fill="none" stroke="#333" stroke-width="2"/>
  <text x="1465" y="54" font-family="monospace" font-size="14" fill="#666">29x28</text>
  <rect x="1457" y="34" width="29" height="38" fill="none" stroke="#333" stroke-width="2"/>
  <text x="1465" y="54" font-family="monospace" font-size="14" fill="#666">29x38</text>
  <rect x="1460" y="32" width="23" height="28" fill="none" stroke="#333" stroke-width="2"/>
  <text x="1468" y="52" font-family="monospace" font-size="14" fill="#666">23x28</text>
  <rect x="1460" y="32" width="23" height="38" fill="none" stroke="#333" stroke-width="2"/>
  <text x="1468" y="52" font-family="monospace" font-size="14" fill="#666">23x38</text>
  <rect x="1465" y="30" width="12" height="30" fill="none" stroke="#333" stroke-width="2"/>
  <text x="1473" y="50" font-family="monospace" font-size="14" fill="#666">12x30</text>
  <rect x="1465" y="30" width="12" height="44" fill="none" stroke="#333" stroke-width="2"/>
  <text x="1473" y="50" font-family="monospace" font-size="14" fill="#666">12x44</text>
  <rect x="1409" y="30" width="9" height="3" fill="#333" rx="1"/>
  <rect x="1465" y="30" width="12" height="3" fill="#333" rx="1"/>
  <rect x="31" y="32" width="10" height="3" fill="#333" rx="1"/>
  <rect x="115" y="32" width="11" height="3" fill="#333" rx="1"/>
  <rect x="1407" y="32" width="14" height="3" fill="#333" rx="1"/>
  <rect x="1447" y="52" width="20" height="3" fill="#333" rx="1"/>
  <rect x="1475" y="52" width="21" height="3" fill="#333" rx="1"/>
  <rect x="1251" y="54" width="10" height="3" fill="#333" rx="1"/>
  <rect x="1447" y="54" width="19" height="3" fill="#333" rx="1"/>
  <rect x="1476" y="54" width="20" height="3" fill="#333" rx="1"/>
  <rect x="1452" y="70" width="38" height="3" fill="#333" rx="1"/>
  <rect x="1454" y="72" width="35" height="3" fill="#333" rx="1"/>
  <rect x="1456" y="74" width="30" height="3" fill="#333" rx="1"/>
  <rect x="1459" y="76" width="24" height="3" fill="#333" rx="1"/>
  <rect x="1464" y="78" width="15" height="3" fill="#333" rx="1"/>
  <rect x="48" y="136" width="11" height="3" fill="#333" rx="1"/>
  <rect x="169" y="146" width="10" height="3" fill="#333" rx="1"/>
  <rect x="213" y="146" width="10" height="3" fill="#333" rx="1"/>
  <rect x="151" y="148" width="9" height="3" fill="#333" rx="1"/>
  <rect x="333" y="178" width="9" height="3" fill="#333" rx="1"/>
  <rect x="367" y="186" width="9" height="3" fill="#333" rx="1"/>
  <rect x="497" y="186" width="9" height="3" fill="#333" rx="1"/>
  <rect x="33" y="260" width="11" height="3" fill="#333" rx="1"/>
  <rect x="31" y="266" width="14" height="3" fill="#333" rx="1"/>
  <rect x="32" y="298" width="14" height="3" fill="#333" rx="1"/>
  <rect x="32" y="306" width="14" height="3" fill="#333" rx="1"/>
  <rect x="1406" y="392" width="9" height="3" fill="#333" rx="1"/>
  <rect x="34" y="400" width="12" height="3" fill="#333" rx="1"/>
  <rect x="961" y="400" width="9" height="3" fill="#333" rx="1"/>
  <rect x="116" y="404" width="11" height="3" fill="#333" rx="1"/>
  <rect x="129" y="404" width="10" height="3" fill="#333" rx="1"/>
</svg>