<svg xmlns="http://www.w3.org/2000/svg" viewBox="0 0 1536 1024" width="512" height="341">
  <rect x="0" y="0" width="1536" height="1024" fill="#f8f9fa"/>
  <rect x="1448" y="46" width="47" height="22" fill="none" stroke="#333" stroke-width="2"/>
  <text x="1456" y="66" font-family="monospace" font-size="14" fill="#666">47x22</text>
  <rect x="1455" y="36" width="33" height="26" fill="none" stroke="#333" stroke-width="2"/>
  <text x="1463" y="56" font-family="monospace" font-size="14" fill="#666">33x26</text>
  <rect x="1455" y="36" width="33" height="36" fill="none" stroke="#333" stroke-width="2"/>
  <text x="1463" y="56" font-family="monospace" font-size="14" fill="#666">33x36</text>
  <rect x="1457" y="34" width="29" height="28" fill="none" stroke="#333" stroke-width="2"/>
  <text x="1465" y="54" font-family="monospace" font-size="14" fill="#666">29x28</text>
  <rect x="1457" y="34" width="29" height="38" fill="none" stroke="#333" stroke-width="2"/>
  <text x="1465" y="54" font-family="monospace" font-size="14" fill="#666">29x38</text>
  <rect x="1460" y="32" width="23" height="28" fill="none" stroke="#333" stroke-width="2"/>
  <text x="1468" y="52" font-family="monospace" font-size="14" fill="#666">23x28</text>
  <rect x="1460" y="32" width="23" height="38" fill="none" stroke="#333" stroke-width="2"/>
  <text x="1468" y="52" font-family="monospace" font-size="14" fill="#666">23x38</text>
  <rect x="1466" y="30" width="11" height="30" fill="none" stroke="#333" stroke-width="2"/>
  <text x="1474" y="50" font-family="monospace" font-size="14" fill="#666">11x30</text>
  <rect x="1466" y="30" width="11" height="46" fill="none" stroke="#333" stroke-width="2"/>
  <text x="1474" y="50" font-family="monospace" font-size="14" fill="#666">11x46</text>
  <rect x="1408" y="30" width="9" height="3" fill="#333" rx="1"/>
  <rect x="1466" y="30" width="11" height="3" fill="#333" rx="1"/>
  <rect x="31" y="32" width="10" height="3" fill="#333" rx="1"/>
  <rect x="114" y="32" width="11" height="3" fill="#333" rx="1"/>
  <rect x="1406" y="32" width="14" height="3" fill="#333" rx="1"/>
  <rect x="321" y="52" width="12" height="3" fill="#333" rx="1"/>
  <rect x="1252" y="52" width="10" height="3" fill="#333" rx="1"/>
  <rect x="1447" y="52" width="21" height="3" fill="#333" rx="1"/>
  <rect x="1475" y="52" width="21" height="3" fill="#333" rx="1"/>
  <rect x="321" y="54" width="14" height="3" fill="#333" rx="1"/>
  <rect x="1452" y="70" width="39" height="3" fill="#333" rx="1"/>
  <rect x="1454" y="72" width="35" height="3" fill="#333" rx="1"/>
  <rect x="1456" y="74" width="31" height="3" fill="#333" rx="1"/>
  <rect x="1459" y="76" width="25" height="3" fill="#333" rx="1"/>
  <rect x="1464" y="78" width="15" height="3" fill="#333" rx="1"/>
  <rect x="49" y="136" width="10" height="3" fill="#333" rx="1"/>
  <rect x="169" y="146" width="10" height="3" fill="#333" rx="1"/>
  <rect x="213" y="146" width="9" height="3" fill="#333" rx="1"/>
  <rect x="151" y="148" width="9" height="3" fill="#333" rx="1"/>
  <rect x="368" y="192" width="9" height="3" fill="#333" rx="1"/>
  <rect x="394" y="192" width="9" height="3" fill="#333" rx="1"/>
  <rect x="473" y="192" width="9" height="3" fill="#333" rx="1"/>
  <rect x="462" y="194" width="9" height="3" fill="#333" rx="1"/>
  <rect x="385" y="246" width="9" height="3" fill="#333" rx="1"/>
  <rect x="736" y="246" width="9" height="3" fill="#333" rx="1"/>
  <rect x="1082" y="246" width="9" height="3" fill="#333" rx="1"/>
  <rect x="1307" y="246" width="10" height="3" fill="#333" rx="1"/>
  <rect x="1429" y="246" width="9" height="3" fill="#333" rx="1"/>
  <rect x="34" y="260" width="10" height="3" fill="#333" rx="1"/>
  <rect x="31" y="266" width="15" height="3" fill="#333" rx="1"/>
</svg>