<svg xmlns="http://www.w3.org/2000/svg" viewBox="0 0 1536 1024" width="512" height="341">
  <rect x="0" y="0" width="1536" height="1024" fill="#f8f9fa"/>
  <rect x="1157" y="784" width="306" height="22" fill="none" stroke="#333" stroke-width="2"/>
  <text x="1165" y="804" font-family="monospace" font-size="14" fill="#666">306x22</text>
  <rect x="1157" y="784" width="306" height="32" fill="none" stroke="#333" stroke-width="2"/>
  <text x="1165" y="804" font-family="monospace" font-size="14" fill="#666">306x32</text>
  <rect x="1158" y="782" width="304" height="22" fill="none" stroke="#333" stroke-width="2"/>
  <text x="1166" y="802" font-family="monospace" font-size="14" fill="#666">304x22</text>
  <rect x="1158" y="782" width="304" height="32" fill="none" stroke="#333" stroke-width="2"/>
  <text x="1166" y="802" font-family="monospace" font-size="14" fill="#666">304x32</text>
  <rect x="1161" y="780" width="299" height="24" fill="none" stroke="#333" stroke-width="2"/>
  <text x="1169" y="800" font-family="monospace" font-size="14" fill="#666">299x24</text>
  <rect x="1161" y="780" width="299" height="34" fill="none" stroke="#333" stroke-width="2"/>
  <text x="1169" y="800" font-family="monospace" font-size="14" fill="#666">299x34</text>
  <rect x="1447" y="44" width="45" height="22" fill="none" stroke="#333" stroke-width="2"/>
  <text x="1455" y="64" font-family="monospace" font-size="14" fill="#666">45x22</text>
  <rect x="1448" y="42" width="43" height="34" fill="none" stroke="#333" stroke-width="2"/>
  <text x="1456" y="62" font-family="monospace" font-size="14" fill="#666">43x34</text>
  <rect x="1450" y="40" width="40" height="24" fill="none" stroke="#333" stroke-width="2"/>
  <text x="1458" y="60" font-family="monospace" font-size="14" fill="#666">40x24</text>
  <rect x="1450" y="40" width="40" height="34" fill="none" stroke="#333" stroke-width="2"/>
  <text x="1458" y="60" font-family="monospace" font-size="14" fill="#666">40x34</text>
  <rect x="1451" y="38" width="37" height="26" fill="none" stroke="#333" stroke-width="2"/>
  <text x="1459" y="58" font-family="monospace" font-size="14" fill="#666">37x26</text>
  <rect x="1451" y="38" width="37" height="36" fill="none" stroke="#333" stroke-width="2"/>
  <text x="1459" y="58" font-family="monospace" font-size="14" fill="#666">37x36</text>
  <rect x="1453" y="36" width="34" height="28" fill="none" stroke="#333" stroke-width="2"/>
  <text x="1461" y="56" font-family="monospace" font-size="14" fill="#666">34x28</text>
  <rect x="1453" y="36" width="34" height="38" fill="none" stroke="#333" stroke-width="2"/>
  <text x="1461" y="56" font-family="monospace" font-size="14" fill="#666">34x38</text>
  <rect x="1455" y="34" width="29" height="28" fill="none" stroke="#333" stroke-width="2"/>
  <text x="1463" y="54" font-family="monospace" font-size="14" fill="#666">29x28</text>
  <rect x="1455" y="34" width="29" height="38" fill="none" stroke="#333" stroke-width="2"/>
  <text x="1463" y="54" font-family="monospace" font-size="14" fill="#666">29x38</text>
  <rect x="1459" y="32" width="22" height="28" fill="none" stroke="#333" stroke-width="2"/>
  <text x="1467" y="52" font-family="monospace" font-size="14" fill="#666">22x28</text>
  <rect x="1459" y="32" width="22" height="38" fill="none" stroke="#333" stroke-width="2"/>
  <text x="1467" y="52" font-family="monospace" font-size="14" fill="#666">22x38</text>
  <rect x="1464" y="30" width="12" height="30" fill="none" stroke="#333" stroke-width="2"/>
  <text x="1472" y="50" font-family="monospace" font-size="14" fill="#666">12x30</text>
  <rect x="1464" y="30" width="12" height="44" fill="none" stroke="#333" stroke-width="2"/>
  <text x="1472" y="50" font-family="monospace" font-size="14" fill="#666">12x44</text>
  <rect x="1464" y="30" width="12" height="3" fill="#333" rx="1"/>
  <rect x="1406" y="32" width="14" height="3" fill="#333" rx="1"/>
  <rect x="1459" y="32" width="22" height="3" fill="#333" rx="1"/>
  <rect x="114" y="34" width="10" height="3" fill="#333" rx="1"/>
  <rect x="1405" y="34" width="16" height="3" fill="#333" rx="1"/>
  <rect x="1445" y="52" width="21" height="3" fill="#333" rx="1"/>
  <rect x="1474" y="52" width="20" height="3" fill="#333" rx="1"/>
  <rect x="1445" y="54" width="20" height="3" fill="#333" rx="1"/>
  <rect x="1474" y="54" width="20" height="3" fill="#333" rx="1"/>
  <rect x="334" y="56" width="9" height="3" fill="#333" rx="1"/>
  <rect x="1451" y="70" width="38" height="3" fill="#333" rx="1"/>
  <rect x="1452" y="72" width="35" height="3" fill="#333" rx="1"/>
  <rect x="1455" y="74" width="30" height="3" fill="#333" rx="1"/>
  <rect x="1457" y="76" width="25" height="3" fill="#333" rx="1"/>
  <rect x="1461" y="78" width="17" height="3" fill="#333" rx="1"/>
  <rect x="47" y="138" width="12" height="3" fill="#333" rx="1"/>
  <rect x="170" y="148" width="9" height="3" fill="#333" rx="1"/>
  <rect x="213" y="148" width="9" height="3" fill="#333" rx="1"/>
  <rect x="353" y="182" width="9" height="3" fill="#333" rx="1"/>
  <rect x="416" y="182" width="9" height="3" fill="#333" rx="1"/>
  <rect x="1159" y="182" width="10" height="3" fill="#333" rx="1"/>
  <rect x="1202" y="182" width="9" height="3" fill="#333" rx="1"/>
  <rect x="947" y="258" width="14" height="3" fill="#333" rx="1"/>
  <rect x="1199" y="260" width="9" height="3" fill="#333" rx="1"/>
  <rect x="1190" y="262" width="9" height="3" fill="#333" rx="1"/>
  <rect x="632" y="264" width="15" height="3" fill="#333" rx="1"/>
  <rect x="653" y="264" width="15" height="3" fill="#333" rx="1"/>
  <rect x="635" y="270" width="9" height="3" fill="#333" rx="1"/>
  <rect x="656" y="270" width="9" height="3" fill="#333" rx="1"/>
  <rect x="676" y="270" width="10" height="3" fill="#333" rx="1"/>
  <rect x="697" y="270" width="9" height="3" fill="#333" rx="1"/>
  <rect x="718" y="270" width="9" height="3" fill="#333" rx="1"/>
</svg>