<svg xmlns="http://www.w3.org/2000/svg" viewBox="0 0 1536 1024" width="512" height="341">
  <rect x="0" y="0" width="1536" height="1024" fill="#f8f9fa"/>
  <rect x="1448" y="42" width="45" height="22" fill="none" stroke="#333" stroke-width="2"/>
  <text x="1456" y="62" font-family="monospace" font-size="14" fill="#666">45x22</text>
  <rect x="1451" y="38" width="40" height="36" fill="none" stroke="#333" stroke-width="2"/>
  <text x="1459" y="58" font-family="monospace" font-size="14" fill="#666">40x36</text>
  <rect x="1452" y="36" width="37" height="24" fill="none" stroke="#333" stroke-width="2"/>
  <text x="1460" y="56" font-family="monospace" font-size="14" fill="#666">37x24</text>
  <rect x="1452" y="36" width="37" height="34" fill="none" stroke="#333" stroke-width="2"/>
  <text x="1460" y="56" font-family="monospace" font-size="14" fill="#666">37x34</text>
  <rect x="1454" y="34" width="33" height="26" fill="none" stroke="#333" stroke-width="2"/>
  <text x="1462" y="54" font-family="monospace" font-size="14" fill="#666">33x26</text>
  <rect x="1454" y="34" width="33" height="36" fill="none" stroke="#333" stroke-width="2"/>
  <text x="1462" y="54" font-family="monospace" font-size="14" fill="#666">33x36</text>
  <rect x="1457" y="32" width="28" height="26" fill="none" stroke="#333" stroke-width="2"/>
  <text x="1465" y="52" font-family="monospace" font-size="14" fill="#666">28x26</text>
  <rect x="1457" y="32" width="28" height="36" fill="none" stroke="#333" stroke-width="2"/>
  <text x="1465" y="52" font-family="monospace" font-size="14" fill="#666">28x36</text>
  <rect x="1460" y="30" width="22" height="28" fill="none" stroke="#333" stroke-width="2"/>
  <text x="1468" y="50" font-family="monospace" font-size="14" fill="#666">22x28</text>
  <rect x="1460" y="30" width="22" height="38" fill="none" stroke="#333" stroke-width="2"/>
  <text x="1468" y="50" font-family="monospace" font-size="14" fill="#666">22x38</text>
  <rect x="1466" y="28" width="9" height="30" fill="none" stroke="#333" stroke-width="2"/>
  <text x="1474" y="48" font-family="monospace" font-size="14" fill="#666">9x30</text>
  <rect x="1466" y="28" width="9" height="46" fill="none" stroke="#333" stroke-width="2"/>
  <text x="1474" y="48" font-family="monospace" font-size="14" fill="#666">9x46</text>
  <rect x="1408" y="30" width="13" height="3" fill="#333" rx="1"/>
  <rect x="1460" y="30" width="22" height="3" fill="#333" rx="1"/>
  <rect x="31" y="32" width="9" height="3" fill="#333" rx="1"/>
  <rect x="110" y="32" width="11" height="3" fill="#333" rx="1"/>
  <rect x="1407" y="32" width="16" height="3" fill="#333" rx="1"/>
  <rect x="1446" y="52" width="20" height="3" fill="#333" rx="1"/>
  <rect x="1476" y="52" width="19" height="3" fill="#333" rx="1"/>
  <rect x="363" y="54" width="11" height="3" fill="#333" rx="1"/>
  <rect x="378" y="54" width="11" height="3" fill="#333" rx="1"/>
  <rect x="406" y="54" width="9" height="3" fill="#333" rx="1"/>
  <rect x="1454" y="70" width="34" height="3" fill="#333" rx="1"/>
  <rect x="1456" y="72" width="29" height="3" fill="#333" rx="1"/>
  <rect x="1459" y="74" width="23" height="3" fill="#333" rx="1"/>
  <rect x="1464" y="76" width="13" height="3" fill="#333" rx="1"/>
  <rect x="47" y="132" width="11" height="3" fill="#333" rx="1"/>
  <rect x="165" y="144" width="9" height="3" fill="#333" rx="1"/>
  <rect x="207" y="144" width="10" height="3" fill="#333" rx="1"/>
  <rect x="337" y="172" width="10" height="3" fill="#333" rx="1"/>
  <rect x="1273" y="172" width="9" height="3" fill="#333" rx="1"/>
  <rect x="372" y="178" width="9" height="3" fill="#333" rx="1"/>
  <rect x="462" y="230" width="10" height="3" fill="#333" rx="1"/>
  <rect x="473" y="230" width="11" height="3" fill="#333" rx="1"/>
  <rect x="625" y="230" width="11" height="3" fill="#333" rx="1"/>
  <rect x="352" y="234" width="16" height="3" fill="#333" rx="1"/>
  <rect x="550" y="234" width="9" height="3" fill="#333" rx="1"/>
  <rect x="31" y="304" width="15" height="3" fill="#333" rx="1"/>
  <rect x="474" y="308" width="9" height="3" fill="#333" rx="1"/>
  <rect x="626" y="308" width="9" height="3" fill="#333" rx="1"/>
  <rect x="32" y="310" width="13" height="3" fill="#333" rx="1"/>
  <rect x="32" y="314" width="13" height="3" fill="#333" rx="1"/>
  <rect x="358" y="330" width="9" height="3" fill="#333" rx="1"/>
</svg>