<svg xmlns="http://www.w3.org/2000/svg" viewBox="0 0 1535 1024" width="511" height="341">
  <rect x="0" y="0" width="1535" height="1024" fill="#f8f9fa"/>
  <rect x="1193" y="826" width="269" height="28" fill="none" stroke="#333" stroke-width="2"/>
  <text x="1201" y="846" font-family="monospace" font-size="14" fill="#666">269x28</text>
  <rect x="1193" y="826" width="269" height="38" fill="none" stroke="#333" stroke-width="2"/>
  <text x="1201" y="846" font-family="monospace" font-size="14" fill="#666">269x38</text>
  <rect x="1193" y="828" width="269" height="26" fill="none" stroke="#333" stroke-width="2"/>
  <text x="1201" y="848" font-family="monospace" font-size="14" fill="#666">269x26</text>
  <rect x="1193" y="828" width="269" height="36" fill="none" stroke="#333" stroke-width="2"/>
  <text x="1201" y="848" font-family="monospace" font-size="14" fill="#666">269x36</text>
  <rect x="1193" y="830" width="269" height="24" fill="none" stroke="#333" stroke-width="2"/>
  <text x="1201" y="850" font-family="monospace" font-size="14" fill="#666">269x24</text>
  <rect x="1193" y="830" width="269" height="34" fill="none" stroke="#333" stroke-width="2"/>
  <text x="1201" y="850" font-family="monospace" font-size="14" fill="#666">269x34</text>
  <rect x="1193" y="832" width="269" height="22" fill="none" stroke="#333" stroke-width="2"/>
  <text x="1201" y="852" font-family="monospace" font-size="14" fill="#666">269x22</text>
  <rect x="1193" y="832" width="269" height="32" fill="none" stroke="#333" stroke-width="2"/>
  <text x="1201" y="852" font-family="monospace" font-size="14" fill="#666">269x32</text>
  <rect x="1194" y="824" width="267" height="30" fill="none" stroke="#333" stroke-width="2"/>
  <text x="1202" y="844" font-family="monospace" font-size="14" fill="#666">267x30</text>
  <rect x="1194" y="824" width="267" height="40" fill="none" stroke="#333" stroke-width="2"/>
  <text x="1202" y="844" font-family="monospace" font-size="14" fill="#666">267x40</text>
  <rect x="1197" y="822" width="261" height="32" fill="none" stroke="#333" stroke-width="2"/>
  <text x="1205" y="842" font-family="monospace" font-size="14" fill="#666">261x32</text>
  <rect x="1197" y="822" width="261" height="42" fill="none" stroke="#333" stroke-width="2"/>
  <text x="1205" y="842" font-family="monospace" font-size="14" fill="#666">261x42</text>
  <rect x="1450" y="42" width="43" height="22" fill="none" stroke="#333" stroke-width="2"/>
  <text x="1458" y="62" font-family="monospace" font-size="14" fill="#666">43x22</text>
  <rect x="1458" y="32" width="27" height="24" fill="none" stroke="#333" stroke-width="2"/>
  <text x="1466" y="52" font-family="monospace" font-size="14" fill="#666">27x24</text>
  <rect x="1458" y="32" width="27" height="34" fill="none" stroke="#333" stroke-width="2"/>
  <text x="1466" y="52" font-family="monospace" font-size="14" fill="#666">27x34</text>
  <rect x="1461" y="30" width="21" height="26" fill="none" stroke="#333" stroke-width="2"/>
  <text x="1469" y="50" font-family="monospace" font-size="14" fill="#666">21x26</text>
  <rect x="1461" y="30" width="21" height="36" fill="none" stroke="#333" stroke-width="2"/>
  <text x="1469" y="50" font-family="monospace" font-size="14" fill="#666">21x36</text>
  <rect x="28" y="30" width="14" height="3" fill="#333" rx="1"/>
  <rect x="110" y="30" width="13" height="3" fill="#333" rx="1"/>
  <rect x="1416" y="30" width="9" height="3" fill="#333" rx="1"/>
  <rect x="1461" y="30" width="21" height="3" fill="#333" rx="1"/>
  <rect x="1414" y="32" width="13" height="3" fill="#333" rx="1"/>
  <rect x="1449" y="52" width="18" height="3" fill="#333" rx="1"/>
  <rect x="1477" y="52" width="17" height="3" fill="#333" rx="1"/>
  <rect x="1449" y="54" width="17" height="3" fill="#333" rx="1"/>
  <rect x="1477" y="54" width="17" height="3" fill="#333" rx="1"/>
  <rect x="1450" y="56" width="15" height="3" fill="#333" rx="1"/>
  <rect x="341" y="70" width="12" height="3" fill="#333" rx="1"/>
  <rect x="379" y="70" width="13" height="3" fill="#333" rx="1"/>
  <rect x="405" y="70" width="12" height="3" fill="#333" rx="1"/>
  <rect x="1461" y="70" width="21" height="3" fill="#333" rx="1"/>
  <rect x="1466" y="72" width="10" height="3" fill="#333" rx="1"/>
  <rect x="44" y="132" width="12" height="3" fill="#333" rx="1"/>
  <rect x="145" y="144" width="9" height="3" fill="#333" rx="1"/>
  <rect x="511" y="190" width="10" height="3" fill="#333" rx="1"/>
  <rect x="531" y="190" width="9" height="3" fill="#333" rx="1"/>
  <rect x="556" y="190" width="9" height="3" fill="#333" rx="1"/>
  <rect x="27" y="192" width="9" height="3" fill="#333" rx="1"/>
  <rect x="38" y="192" width="9" height="3" fill="#333" rx="1"/>
  <rect x="522" y="226" width="9" height="3" fill="#333" rx="1"/>
  <rect x="597" y="226" width="9" height="3" fill="#333" rx="1"/>
  <rect x="608" y="266" width="11" height="3" fill="#333" rx="1"/>
  <rect x="658" y="266" width="12" height="3" fill="#333" rx="1"/>
  <rect x="587" y="270" width="10" height="3" fill="#333" rx="1"/>
  <rect x="493" y="272" width="18" height="3" fill="#333" rx="1"/>
  <rect x="30" y="294" width="12" height="3" fill="#333" rx="1"/>
  <rect x="26" y="300" width="19" height="3" fill="#333" rx="1"/>
  <rect x="526" y="304" width="9" height="3" fill="#333" rx="1"/>
</svg>