<svg xmlns="http://www.w3.org/2000/svg" viewBox="0 0 1536 1024" width="512" height="341">
  <rect x="0" y="0" width="1536" height="1024" fill="#f8f9fa"/>
  <rect x="383" y="278" width="19" height="22" fill="none" stroke="#333" stroke-width="2"/>
  <text x="391" y="298" font-family="monospace" font-size="14" fill="#666">19x22</text>
  <rect x="556" y="278" width="20" height="22" fill="none" stroke="#333" stroke-width="2"/>
  <text x="564" y="298" font-family="monospace" font-size="14" fill="#666">20x22</text>
  <rect x="658" y="538" width="32" height="22" fill="none" stroke="#333" stroke-width="2"/>
  <text x="666" y="558" font-family="monospace" font-size="14" fill="#666">32x22</text>
  <rect x="668" y="528" width="11" height="28" fill="none" stroke="#333" stroke-width="2"/>
  <text x="676" y="548" font-family="monospace" font-size="14" fill="#666">11x28</text>
  <rect x="732" y="278" width="20" height="22" fill="none" stroke="#333" stroke-width="2"/>
  <text x="740" y="298" font-family="monospace" font-size="14" fill="#666">20x22</text>
  <rect x="1442" y="42" width="44" height="22" fill="none" stroke="#333" stroke-width="2"/>
  <text x="1450" y="62" font-family="monospace" font-size="14" fill="#666">44x22</text>
  <rect x="1445" y="36" width="38" height="38" fill="none" stroke="#333" stroke-width="2"/>
  <text x="1453" y="56" font-family="monospace" font-size="14" fill="#666">38x38</text>
  <rect x="1447" y="34" width="34" height="26" fill="none" stroke="#333" stroke-width="2"/>
  <text x="1455" y="54" font-family="monospace" font-size="14" fill="#666">34x26</text>
  <rect x="1447" y="34" width="34" height="36" fill="none" stroke="#333" stroke-width="2"/>
  <text x="1455" y="54" font-family="monospace" font-size="14" fill="#666">34x36</text>
  <rect x="1449" y="32" width="30" height="28" fill="none" stroke="#333" stroke-width="2"/>
  <text x="1457" y="52" font-family="monospace" font-size="14" fill="#666">30x28</text>
  <rect x="1449" y="32" width="30" height="38" fill="none" stroke="#333" stroke-width="2"/>
  <text x="1457" y="52" font-family="monospace" font-size="14" fill="#666">30x38</text>
  <rect x="1453" y="30" width="22" height="28" fill="none" stroke="#333" stroke-width="2"/>
  <text x="1461" y="50" font-family="monospace" font-size="14" fill="#666">22x28</text>
  <rect x="1453" y="30" width="22" height="38" fill="none" stroke="#333" stroke-width="2"/>
  <text x="1461" y="50" font-family="monospace" font-size="14" fill="#666">22x38</text>
  <rect x="1458" y="28" width="12" height="30" fill="none" stroke="#333" stroke-width="2"/>
  <text x="1466" y="48" font-family="monospace" font-size="14" fill="#666">12x30</text>
  <rect x="1458" y="28" width="12" height="44" fill="none" stroke="#333" stroke-width="2"/>
  <text x="1466" y="48" font-family="monospace" font-size="14" fill="#666">12x44</text>
  <rect x="1402" y="30" width="13" height="3" fill="#333" rx="1"/>
  <rect x="1453" y="30" width="22" height="3" fill="#333" rx="1"/>
  <rect x="114" y="32" width="10" height="3" fill="#333" rx="1"/>
  <rect x="1400" y="32" width="17" height="3" fill="#333" rx="1"/>
  <rect x="1449" y="32" width="30" height="3" fill="#333" rx="1"/>
  <rect x="1249" y="52" width="10" height="3" fill="#333" rx="1"/>
  <rect x="1440" y="52" width="19" height="3" fill="#333" rx="1"/>
  <rect x="1469" y="52" width="19" height="3" fill="#333" rx="1"/>
  <rect x="308" y="54" width="9" height="3" fill="#333" rx="1"/>
  <rect x="372" y="54" width="13" height="3" fill="#333" rx="1"/>
  <rect x="1448" y="70" width="32" height="3" fill="#333" rx="1"/>
  <rect x="1450" y="72" width="28" height="3" fill="#333" rx="1"/>
  <rect x="1454" y="74" width="21" height="3" fill="#333" rx="1"/>
  <rect x="1459" y="76" width="10" height="3" fill="#333" rx="1"/>
  <rect x="377" y="88" width="9" height="3" fill="#333" rx="1"/>
  <rect x="365" y="182" width="12" height="3" fill="#333" rx="1"/>
  <rect x="380" y="182" width="12" height="3" fill="#333" rx="1"/>
  <rect x="423" y="186" width="9" height="3" fill="#333" rx="1"/>
  <rect x="344" y="188" width="9" height="3" fill="#333" rx="1"/>
  <rect x="413" y="188" width="9" height="3" fill="#333" rx="1"/>
  <rect x="32" y="262" width="11" height="3" fill="#333" rx="1"/>
  <rect x="912" y="266" width="17" height="3" fill="#333" rx="1"/>
  <rect x="29" y="268" width="17" height="3" fill="#333" rx="1"/>
  <rect x="385" y="276" width="15" height="3" fill="#333" rx="1"/>
  <rect x="558" y="276" width="15" height="3" fill="#333" rx="1"/>
  <rect x="735" y="276" width="15" height="3" fill="#333" rx="1"/>
  <rect x="383" y="278" width="19" height="3" fill="#333" rx="1"/>
  <rect x="556" y="278" width="20" height="3" fill="#333" rx="1"/>
  <rect x="380" y="292" width="26" height="3" fill="#333" rx="1"/>
  <rect x="552" y="292" width="12" height="3" fill="#333" rx="1"/>
  <rect x="565" y="292" width="14" height="3" fill="#333" rx="1"/>
  <rect x="729" y="292" width="11" height="3" fill="#333" rx="1"/>
  <rect x="741" y="292" width="14" height="3" fill="#333" rx="1"/>
</svg>