<svg xmlns="http://www.w3.org/2000/svg" viewBox="0 0 3200 2841" width="1066" height="947">
  <rect x="0" y="0" width="3200" height="2841" fill="#f8f9fa"/>
  <rect x="7" y="36" width="297" height="108" fill="#e8f0fe" stroke="#333" stroke-width="2"/>
  <text x="15" y="56" font-family="monospace" font-size="14" fill="#666">297x108</text>
  <rect x="75" y="500" width="3051" height="318" fill="#e8f0fe" stroke="#333" stroke-width="2"/>
  <text x="83" y="520" font-family="monospace" font-size="14" fill="#666">3051x318</text>
  <rect x="75" y="1344" width="3051" height="378" fill="#e8f0fe" stroke="#333" stroke-width="2"/>
  <text x="83" y="1364" font-family="monospace" font-size="14" fill="#666">3051x378</text>
  <rect x="144" y="892" width="24" height="26" fill="none" stroke="#333" stroke-width="2"/>
  <text x="152" y="912" font-family="monospace" font-size="14" fill="#666">24x26</text>
  <rect x="144" y="1172" width="22" height="26" fill="none" stroke="#333" stroke-width="2"/>
  <text x="152" y="1192" font-family="monospace" font-size="14" fill="#666">22x26</text>
  <rect x="145" y="160" width="21" height="26" fill="none" stroke="#333" stroke-width="2"/>
  <text x="153" y="180" font-family="monospace" font-size="14" fill="#666">21x26</text>
  <rect x="145" y="216" width="21" height="26" fill="none" stroke="#333" stroke-width="2"/>
  <text x="153" y="236" font-family="monospace" font-size="14" fill="#666">21x26</text>
  <rect x="145" y="272" width="21" height="26" fill="none" stroke="#333" stroke-width="2"/>
  <text x="153" y="292" font-family="monospace" font-size="14" fill="#666">21x26</text>
  <rect x="145" y="604" width="21" height="26" fill="none" stroke="#333" stroke-width="2"/>
  <text x="153" y="624" font-family="monospace" font-size="14" fill="#666">21x26</text>
  <rect x="145" y="768" width="21" height="26" fill="none" stroke="#333" stroke-width="2"/>
  <text x="153" y="788" font-family="monospace" font-size="14" fill="#666">21x26</text>
  <rect x="145" y="836" width="21" height="26" fill="none" stroke="#333" stroke-width="2"/>
  <text x="153" y="856" font-family="monospace" font-size="14" fill="#666">21x26</text>
  <rect x="145" y="948" width="21" height="26" fill="none" stroke="#333" stroke-width="2"/>
  <text x="153" y="968" font-family="monospace" font-size="14" fill="#666">21x26</text>
  <rect x="145" y="1116" width="21" height="26" fill="none" stroke="#333" stroke-width="2"/>
  <text x="153" y="1136" font-family="monospace" font-size="14" fill="#666">21x26</text>
  <rect x="145" y="1560" width="21" height="26" fill="none" stroke="#333" stroke-width="2"/>
  <text x="153" y="1580" font-family="monospace" font-size="14" fill="#666">21x26</text>
  <rect x="145" y="1560" width="21" height="44" fill="none" stroke="#333" stroke-width="2"/>
  <text x="153" y="1580" font-family="monospace" font-size="14" fill="#666">21x44</text>
  <rect x="145" y="1748" width="21" height="26" fill="none" stroke="#333" stroke-width="2"/>
  <text x="153" y="1768" font-family="monospace" font-size="14" fill="#666">21x26</text>
  <rect x="145" y="1964" width="21" height="26" fill="none" stroke="#333" stroke-width="2"/>
  <text x="153" y="1984" font-family="monospace" font-size="14" fill="#666">21x26</text>
  <rect x="145" y="2412" width="21" height="26" fill="none" stroke="#333" stroke-width="2"/>
  <text x="153" y="2432" font-family="monospace" font-size="14" fill="#666">21x26</text>
  <rect x="145" y="2580" width="21" height="26" fill="none" stroke="#333" stroke-width="2"/>
  <text x="153" y="2600" font-family="monospace" font-size="14" fill="#666">21x26</text>
  <rect x="372" y="36" width="297" height="108" fill="#e8f0fe" stroke="#333" stroke-width="2"/>
  <text x="380" y="56" font-family="monospace" font-size="14" fill="#666">297x108</text>
  <rect x="510" y="160" width="21" height="26" fill="none" stroke="#333" stroke-width="2"/>
  <text x="518" y="180" font-family="monospace" font-size="14" fill="#666">21x26</text>
  <rect x="510" y="216" width="21" height="26" fill="none" stroke="#333" stroke-width="2"/>
  <text x="518" y="236" font-family="monospace" font-size="14" fill="#666">21x26</text>
  <rect x="510" y="272" width="21" height="26" fill="none" stroke="#333" stroke-width="2"/>
  <text x="518" y="292" font-family="monospace" font-size="14" fill="#666">21x26</text>
  <rect x="510" y="548" width="21" height="26" fill="none" stroke="#333" stroke-width="2"/>
  <text x="518" y="568" font-family="monospace" font-size="14" fill="#666">21x26</text>
  <rect x="510" y="604" width="21" height="26" fill="none" stroke="#333" stroke-width="2"/>
  <text x="518" y="624" font-family="monospace" font-size="14" fill="#666">21x26</text>
  <rect x="510" y="712" width="21" height="26" fill="none" stroke="#333" stroke-width="2"/>
  <text x="518" y="732" font-family="monospace" font-size="14" fill="#666">21x26</text>
  <rect x="510" y="768" width="21" height="26" fill="none" stroke="#333" stroke-width="2"/>
  <text x="518" y="788" font-family="monospace" font-size="14" fill="#666">21x26</text>
  <rect x="510" y="836" width="21" height="26" fill="none" stroke="#333" stroke-width="2"/>
  <text x="518" y="856" font-family="monospace" font-size="14" fill="#666">21x26</text>
  <rect x="510" y="892" width="21" height="26" fill="none" stroke="#333" stroke-width="2"/>
  <text x="518" y="912" font-family="monospace" font-size="14" fill="#666">21x26</text>
  <rect x="510" y="948" width="21" height="26" fill="none" stroke="#333" stroke-width="2"/>
  <text x="518" y="968" font-family="monospace" font-size="14" fill="#666">21x26</text>
  <rect x="510" y="1004" width="21" height="26" fill="none" stroke="#333" stroke-width="2"/>
  <text x="518" y="1024" font-family="monospace" font-size="14" fill="#666">21x26</text>
  <rect x="510" y="1060" width="21" height="26" fill="none" stroke="#333" stroke-width="2"/>
  <text x="518" y="1080" font-family="monospace" font-size="14" fill="#666">21x26</text>
  <rect x="510" y="1116" width="21" height="26" fill="none" stroke="#333" stroke-width="2"/>
  <text x="518" y="1136" font-family="monospace" font-size="14" fill="#666">21x26</text>
  <rect x="510" y="1172" width="24" height="26" fill="none" stroke="#333" stroke-width="2"/>
  <text x="518" y="1192" font-family="monospace" font-size="14" fill="#666">24x26</text>
  <rect x="510" y="1228" width="21" height="26" fill="none" stroke="#333" stroke-width="2"/>
  <text x="518" y="1248" font-family="monospace" font-size="14" fill="#666">21x26</text>
  <rect x="510" y="2132" width="21" height="26" fill="none" stroke="#333" stroke-width="2"/>
  <text x="518" y="2152" font-family="monospace" font-size="14" fill="#666">21x26</text>
  <rect x="510" y="2188" width="21" height="26" fill="none" stroke="#333" stroke-width="2"/>
  <text x="518" y="2208" font-family="monospace" font-size="14" fill="#666">21x26</text>
  <rect x="792" y="36" width="297" height="108" fill="#e8f0fe" stroke="#333" stroke-width="2"/>
  <text x="800" y="56" font-family="monospace" font-size="14" fill="#666">297x108</text>
  <rect x="803" y="680" width="17" height="24" fill="none" stroke="#333" stroke-width="2"/>
  <text x="811" y="700" font-family="monospace" font-size="14" fill="#666">17x24</text>
  <rect x="905" y="72" width="14" height="26" fill="none" stroke="#333" stroke-width="2"/>
  <text x="913" y="92" font-family="monospace" font-size="14" fill="#666">14x26</text>
  <rect x="930" y="328" width="21" height="26" fill="none" stroke="#333" stroke-width="2"/>
  <text x="938" y="348" font-family="monospace" font-size="14" fill="#666">21x26</text>
  <rect x="930" y="384" width="21" height="26" fill="none" stroke="#333" stroke-width="2"/>
  <text x="938" y="404" font-family="monospace" font-size="14" fill="#666">21x26</text>
  <rect x="930" y="440" width="21" height="26" fill="none" stroke="#333" stroke-width="2"/>
  <text x="938" y="460" font-family="monospace" font-size="14" fill="#666">21x26</text>
  <rect x="930" y="548" width="21" height="26" fill="none" stroke="#333" stroke-width="2"/>
  <text x="938" y="568" font-family="monospace" font-size="14" fill="#666">21x26</text>
  <rect x="930" y="712" width="21" height="26" fill="none" stroke="#333" stroke-width="2"/>
  <text x="938" y="732" font-family="monospace" font-size="14" fill="#666">21x26</text>
  <rect x="930" y="1004" width="21" height="26" fill="none" stroke="#333" stroke-width="2"/>
  <text x="938" y="1024" font-family="monospace" font-size="14" fill="#666">21x26</text>
  <rect x="930" y="1060" width="21" height="26" fill="none" stroke="#333" stroke-width="2"/>
  <text x="938" y="1080" font-family="monospace" font-size="14" fill="#666">21x26</text>
  <rect x="930" y="1284" width="21" height="26" fill="none" stroke="#333" stroke-width="2"/>
  <text x="938" y="1304" font-family="monospace" font-size="14" fill="#666">21x26</text>
  <rect x="930" y="1392" width="24" height="26" fill="none" stroke="#333" stroke-width="2"/>
  <text x="938" y="1412" font-family="monospace" font-size="14" fill="#666">24x26</text>
  <rect x="930" y="1504" width="21" height="26" fill="none" stroke="#333" stroke-width="2"/>
  <text x="938" y="1524" font-family="monospace" font-size="14" fill="#666">21x26</text>
  <rect x="930" y="1636" width="21" height="26" fill="none" stroke="#333" stroke-width="2"/>
  <text x="938" y="1656" font-family="monospace" font-size="14" fill="#666">21x26</text>
  <rect x="930" y="1692" width="21" height="26" fill="none" stroke="#333" stroke-width="2"/>
  <text x="938" y="1712" font-family="monospace" font-size="14" fill="#666">21x26</text>
  <rect x="930" y="1740" width="21" height="26" fill="none" stroke="#333" stroke-width="2"/>
  <text x="938" y="1760" font-family="monospace" font-size="14" fill="#666">21x26</text>
  <rect x="930" y="1908" width="21" height="26" fill="none" stroke="#333" stroke-width="2"/>
  <text x="938" y="1928" font-family="monospace" font-size="14" fill="#666">21x26</text>
  <rect x="930" y="2356" width="21" height="26" fill="none" stroke="#333" stroke-width="2"/>
  <text x="938" y="2376" font-family="monospace" font-size="14" fill="#666">21x26</text>
  <rect x="930" y="2412" width="21" height="26" fill="none" stroke="#333" stroke-width="2"/>
  <text x="938" y="2432" font-family="monospace" font-size="14" fill="#666">21x26</text>
  <rect x="930" y="2524" width="21" height="26" fill="none" stroke="#333" stroke-width="2"/>
  <text x="938" y="2544" font-family="monospace" font-size="14" fill="#666">21x26</text>
  <rect x="930" y="2580" width="21" height="26" fill="none" stroke="#333" stroke-width="2"/>
  <text x="938" y="2600" font-family="monospace" font-size="14" fill="#666">21x26</text>
  <rect x="960" y="78" width="10" height="24" fill="none" stroke="#333" stroke-width="2"/>
  <text x="968" y="98" font-family="monospace" font-size="14" fill="#666">10x24</text>
  <rect x="1222" y="36" width="297" height="108" fill="#e8f0fe" stroke="#333" stroke-width="2"/>
  <text x="1230" y="56" font-family="monospace" font-size="14" fill="#666">297x108</text>
  <rect x="1321" y="72" width="14" height="26" fill="none" stroke="#333" stroke-width="2"/>
  <text x="1329" y="92" font-family="monospace" font-size="14" fill="#666">14x26</text>
  <rect x="1321" y="82" width="14" height="28" fill="none" stroke="#333" stroke-width="2"/>
  <text x="1329" y="102" font-family="monospace" font-size="14" fill="#666">14x28</text>
  <rect x="1339" y="1440" width="14" height="24" fill="none" stroke="#333" stroke-width="2"/>
  <text x="1347" y="1460" font-family="monospace" font-size="14" fill="#666">14x24</text>
  <rect x="1357" y="2356" width="24" height="26" fill="none" stroke="#333" stroke-width="2"/>
  <text x="1365" y="2376" font-family="monospace" font-size="14" fill="#666">24x26</text>
  <rect x="1358" y="1284" width="23" height="26" fill="none" stroke="#333" stroke-width="2"/>
  <text x="1366" y="1304" font-family="monospace" font-size="14" fill="#666">23x26</text>
  <rect x="1360" y="384" width="21" height="26" fill="none" stroke="#333" stroke-width="2"/>
  <text x="1368" y="404" font-family="monospace" font-size="14" fill="#666">21x26</text>
  <rect x="1360" y="440" width="21" height="26" fill="none" stroke="#333" stroke-width="2"/>
  <text x="1368" y="460" font-family="monospace" font-size="14" fill="#666">21x26</text>
  <rect x="1360" y="1392" width="21" height="26" fill="none" stroke="#333" stroke-width="2"/>
  <text x="1368" y="1412" font-family="monospace" font-size="14" fill="#666">21x26</text>
  <rect x="1360" y="1448" width="21" height="26" fill="none" stroke="#333" stroke-width="2"/>
  <text x="1368" y="1468" font-family="monospace" font-size="14" fill="#666">21x26</text>
  <rect x="1360" y="1636" width="21" height="26" fill="none" stroke="#333" stroke-width="2"/>
  <text x="1368" y="1656" font-family="monospace" font-size="14" fill="#666">21x26</text>
  <rect x="1360" y="1740" width="21" height="26" fill="none" stroke="#333" stroke-width="2"/>
  <text x="1368" y="1760" font-family="monospace" font-size="14" fill="#666">21x26</text>
  <rect x="1360" y="1796" width="21" height="26" fill="none" stroke="#333" stroke-width="2"/>
  <text x="1368" y="1816" font-family="monospace" font-size="14" fill="#666">21x26</text>
  <rect x="1360" y="1852" width="21" height="26" fill="none" stroke="#333" stroke-width="2"/>
  <text x="1368" y="1872" font-family="monospace" font-size="14" fill="#666">21x26</text>
  <rect x="1360" y="2076" width="21" height="26" fill="none" stroke="#333" stroke-width="2"/>
  <text x="1368" y="2096" font-family="monospace" font-size="14" fill="#666">21x26</text>
  <rect x="1360" y="2188" width="21" height="26" fill="none" stroke="#333" stroke-width="2"/>
  <text x="1368" y="2208" font-family="monospace" font-size="14" fill="#666">21x26</text>
  <rect x="1360" y="2300" width="21" height="26" fill="none" stroke="#333" stroke-width="2"/>
  <text x="1368" y="2320" font-family="monospace" font-size="14" fill="#666">21x26</text>
  <rect x="1360" y="2468" width="30" height="26" fill="none" stroke="#333" stroke-width="2"/>
  <text x="1368" y="2488" font-family="monospace" font-size="14" fill="#666">30x26</text>
  <rect x="1360" y="2524" width="21" height="26" fill="none" stroke="#333" stroke-width="2"/>
  <text x="1368" y="2544" font-family="monospace" font-size="14" fill="#666">21x26</text>
  <rect x="1363" y="72" width="14" height="30" fill="none" stroke="#333" stroke-width="2"/>
  <text x="1371" y="92" font-family="monospace" font-size="14" fill="#666">14x30</text>
  <rect x="1476" y="1844" width="10" height="22" fill="none" stroke="#333" stroke-width="2"/>
  <text x="1484" y="1864" font-family="monospace" font-size="14" fill="#666">10x22</text>
  <rect x="1642" y="36" width="297" height="108" fill="#e8f0fe" stroke="#333" stroke-width="2"/>
  <text x="1650" y="56" font-family="monospace" font-size="14" fill="#666">297x108</text>
  <rect x="1776" y="2300" width="25" height="26" fill="none" stroke="#333" stroke-width="2"/>
  <text x="1784" y="2320" font-family="monospace" font-size="14" fill="#666">25x26</text>
  <rect x="1780" y="1796" width="21" height="26" fill="none" stroke="#333" stroke-width="2"/>
  <text x="1788" y="1816" font-family="monospace" font-size="14" fill="#666">21x26</text>
  <rect x="1780" y="1852" width="21" height="26" fill="none" stroke="#333" stroke-width="2"/>
  <text x="1788" y="1872" font-family="monospace" font-size="14" fill="#666">21x26</text>
  <rect x="1780" y="2020" width="25" height="26" fill="none" stroke="#333" stroke-width="2"/>
  <text x="1788" y="2040" font-family="monospace" font-size="14" fill="#666">25x26</text>
  <rect x="1780" y="2076" width="21" height="26" fill="none" stroke="#333" stroke-width="2"/>
  <text x="1788" y="2096" font-family="monospace" font-size="14" fill="#666">21x26</text>
  <rect x="1780" y="2132" width="21" height="26" fill="none" stroke="#333" stroke-width="2"/>
  <text x="1788" y="2152" font-family="monospace" font-size="14" fill="#666">21x26</text>
  <rect x="1780" y="2244" width="21" height="26" fill="none" stroke="#333" stroke-width="2"/>
  <text x="1788" y="2264" font-family="monospace" font-size="14" fill="#666">21x26</text>
  <rect x="1780" y="2468" width="21" height="26" fill="none" stroke="#333" stroke-width="2"/>
  <text x="1788" y="2488" font-family="monospace" font-size="14" fill="#666">21x26</text>
  <rect x="2062" y="36" width="297" height="108" fill="#e8f0fe" stroke="#333" stroke-width="2"/>
  <text x="2070" y="56" font-family="monospace" font-size="14" fill="#666">297x108</text>
  <rect x="2198" y="2020" width="25" height="26" fill="none" stroke="#333" stroke-width="2"/>
  <text x="2206" y="2040" font-family="monospace" font-size="14" fill="#666">25x26</text>
  <rect x="2200" y="1504" width="21" height="26" fill="none" stroke="#333" stroke-width="2"/>
  <text x="2208" y="1524" font-family="monospace" font-size="14" fill="#666">21x26</text>
  <rect x="2200" y="1560" width="21" height="26" fill="none" stroke="#333" stroke-width="2"/>
  <text x="2208" y="1580" font-family="monospace" font-size="14" fill="#666">21x26</text>
  <rect x="2200" y="1560" width="21" height="44" fill="none" stroke="#333" stroke-width="2"/>
  <text x="2208" y="1580" font-family="monospace" font-size="14" fill="#666">21x44</text>
  <rect x="2200" y="1692" width="21" height="26" fill="none" stroke="#333" stroke-width="2"/>
  <text x="2208" y="1712" font-family="monospace" font-size="14" fill="#666">21x26</text>
  <rect x="2200" y="1748" width="21" height="26" fill="none" stroke="#333" stroke-width="2"/>
  <text x="2208" y="1768" font-family="monospace" font-size="14" fill="#666">21x26</text>
  <rect x="2200" y="1908" width="21" height="26" fill="none" stroke="#333" stroke-width="2"/>
  <text x="2208" y="1928" font-family="monospace" font-size="14" fill="#666">21x26</text>
  <rect x="2200" y="1964" width="21" height="26" fill="none" stroke="#333" stroke-width="2"/>
  <text x="2208" y="1984" font-family="monospace" font-size="14" fill="#666">21x26</text>
  <rect x="2200" y="2244" width="21" height="26" fill="none" stroke="#333" stroke-width="2"/>
  <text x="2208" y="2264" font-family="monospace" font-size="14" fill="#666">21x26</text>
  <rect x="2201" y="72" width="13" height="30" fill="none" stroke="#333" stroke-width="2"/>
  <text x="2209" y="92" font-family="monospace" font-size="14" fill="#666">13x30</text>
  <rect x="2252" y="72" width="16" height="30" fill="none" stroke="#333" stroke-width="2"/>
  <text x="2260" y="92" font-family="monospace" font-size="14" fill="#666">16x30</text>
  <rect x="797" y="66" width="12" height="3" fill="#333" rx="1"/>
  <rect x="944" y="66" width="10" height="3" fill="#333" rx="1"/>
  <rect x="1248" y="66" width="12" height="3" fill="#333" rx="1"/>
  <rect x="2054" y="66" width="11" height="3" fill="#333" rx="1"/>
  <rect x="2256" y="66" width="12" height="3" fill="#333" rx="1"/>
  <rect x="815" y="72" width="11" height="3" fill="#333" rx="1"/>
  <rect x="833" y="72" width="10" height="3" fill="#333" rx="1"/>
  <rect x="873" y="72" width="10" height="3" fill="#333" rx="1"/>
  <rect x="888" y="72" width="13" height="3" fill="#333" rx="1"/>
  <rect x="905" y="72" width="14" height="3" fill="#333" rx="1"/>
  <rect x="131" y="92" width="49" height="3" fill="#333" rx="1"/>
  <rect x="472" y="92" width="14" height="3" fill="#333" rx="1"/>
  <rect x="498" y="92" width="18" height="3" fill="#333" rx="1"/>
  <rect x="519" y="92" width="14" height="3" fill="#333" rx="1"/>
  <rect x="1692" y="94" width="16" height="3" fill="#333" rx="1"/>
  <rect x="904" y="110" width="10" height="3" fill="#333" rx="1"/>
  <rect x="948" y="110" width="9" height="3" fill="#333" rx="1"/>
  <rect x="1324" y="110" width="10" height="3" fill="#333" rx="1"/>
  <rect x="1338" y="110" width="10" height="3" fill="#333" rx="1"/>
  <rect x="1359" y="110" width="10" height="3" fill="#333" rx="1"/>
  <rect x="151" y="132" width="14" height="3" fill="#333" rx="1"/>
  <rect x="151" y="134" width="14" height="3" fill="#333" rx="1"/>
  <rect x="121" y="138" width="11" height="3" fill="#333" rx="1"/>
  <rect x="153" y="138" width="12" height="3" fill="#333" rx="1"/>
  <rect x="374" y="152" width="9" height="3" fill="#333" rx="1"/>
  <rect x="319" y="156" width="9" height="3" fill="#333" rx="1"/>
  <rect x="348" y="156" width="9" height="3" fill="#333" rx="1"/>
  <rect x="145" y="160" width="21" height="3" fill="#333" rx="1"/>
  <rect x="510" y="160" width="21" height="3" fill="#333" rx="1"/>
  <rect x="494" y="176" width="12" height="3" fill="#333" rx="1"/>
  <rect x="145" y="186" width="21" height="3" fill="#333" rx="1"/>
  <rect x="510" y="186" width="21" height="3" fill="#333" rx="1"/>
</svg>