<svg xmlns="http://www.w3.org/2000/svg" viewBox="0 0 1536 1024" width="512" height="341">
  <rect x="0" y="0" width="1536" height="1024" fill="#f8f9fa"/>
  <rect x="7" y="574" width="254" height="22" fill="none" stroke="#333" stroke-width="2"/>
  <text x="15" y="594" font-family="monospace" font-size="14" fill="#666">254x22</text>
  <rect x="838" y="848" width="27" height="34" fill="none" stroke="#333" stroke-width="2"/>
  <text x="846" y="868" font-family="monospace" font-size="14" fill="#666">27x34</text>
  <rect x="1292" y="146" width="175" height="26" fill="none" stroke="#333" stroke-width="2"/>
  <text x="1300" y="166" font-family="monospace" font-size="14" fill="#666">175x26</text>
  <rect x="1292" y="146" width="175" height="36" fill="none" stroke="#333" stroke-width="2"/>
  <text x="1300" y="166" font-family="monospace" font-size="14" fill="#666">175x36</text>
  <rect x="1292" y="148" width="175" height="24" fill="none" stroke="#333" stroke-width="2"/>
  <text x="1300" y="168" font-family="monospace" font-size="14" fill="#666">175x24</text>
  <rect x="1292" y="148" width="175" height="34" fill="none" stroke="#333" stroke-width="2"/>
  <text x="1300" y="168" font-family="monospace" font-size="14" fill="#666">175x34</text>
  <rect x="1292" y="150" width="175" height="22" fill="none" stroke="#333" stroke-width="2"/>
  <text x="1300" y="170" font-family="monospace" font-size="14" fill="#666">175x22</text>
  <rect x="1292" y="150" width="175" height="32" fill="none" stroke="#333" stroke-width="2"/>
  <text x="1300" y="170" font-family="monospace" font-size="14" fill="#666">175x32</text>
  <rect x="1293" y="144" width="173" height="28" fill="none" stroke="#333" stroke-width="2"/>
  <text x="1301" y="164" font-family="monospace" font-size="14" fill="#666">173x28</text>
  <rect x="1293" y="144" width="173" height="38" fill="none" stroke="#333" stroke-width="2"/>
  <text x="1301" y="164" font-family="monospace" font-size="14" fill="#666">173x38</text>
  <rect x="1295" y="142" width="169" height="30" fill="none" stroke="#333" stroke-width="2"/>
  <text x="1303" y="162" font-family="monospace" font-size="14" fill="#666">169x30</text>
  <rect x="1295" y="142" width="169" height="40" fill="none" stroke="#333" stroke-width="2"/>
  <text x="1303" y="162" font-family="monospace" font-size="14" fill="#666">169x40</text>
  <rect x="36" y="28" width="10" height="3" fill="#333" rx="1"/>
  <rect x="110" y="28" width="11" height="3" fill="#333" rx="1"/>
  <rect x="530" y="28" width="9" height="3" fill="#333" rx="1"/>
  <rect x="1404" y="32" width="11" height="3" fill="#333" rx="1"/>
  <rect x="70" y="38" width="12" height="3" fill="#333" rx="1"/>
  <rect x="1399" y="40" width="11" height="3" fill="#333" rx="1"/>
  <rect x="36" y="42" width="9" height="3" fill="#333" rx="1"/>
  <rect x="53" y="42" width="11" height="3" fill="#333" rx="1"/>
  <rect x="1457" y="54" width="9" height="3" fill="#333" rx="1"/>
  <rect x="1387" y="56" width="21" height="3" fill="#333" rx="1"/>
  <rect x="334" y="68" width="11" height="3" fill="#333" rx="1"/>
  <rect x="901" y="68" width="184" height="3" fill="#333" rx="1"/>
  <rect x="296" y="72" width="9" height="3" fill="#333" rx="1"/>
  <rect x="296" y="74" width="10" height="3" fill="#333" rx="1"/>
  <rect x="349" y="74" width="9" height="3" fill="#333" rx="1"/>
  <rect x="157" y="116" width="12" height="3" fill="#333" rx="1"/>
  <rect x="137" y="120" width="9" height="3" fill="#333" rx="1"/>
  <rect x="104" y="140" width="10" height="3" fill="#333" rx="1"/>
  <rect x="1295" y="142" width="169" height="3" fill="#333" rx="1"/>
  <rect x="1293" y="144" width="173" height="3" fill="#333" rx="1"/>
  <rect x="1292" y="146" width="175" height="3" fill="#333" rx="1"/>
  <rect x="1292" y="148" width="175" height="3" fill="#333" rx="1"/>
  <rect x="1292" y="150" width="175" height="3" fill="#333" rx="1"/>
  <rect x="1292" y="152" width="175" height="3" fill="#333" rx="1"/>
  <rect x="1292" y="154" width="23" height="3" fill="#333" rx="1"/>
  <rect x="1316" y="154" width="151" height="3" fill="#333" rx="1"/>
  <rect x="1292" y="156" width="22" height="3" fill="#333" rx="1"/>
  <rect x="1292" y="172" width="175" height="3" fill="#333" rx="1"/>
  <rect x="1292" y="174" width="175" height="3" fill="#333" rx="1"/>
  <rect x="1292" y="176" width="175" height="3" fill="#333" rx="1"/>
  <rect x="1293" y="178" width="173" height="3" fill="#333" rx="1"/>
  <rect x="1294" y="180" width="171" height="3" fill="#333" rx="1"/>
</svg>