<svg xmlns="http://www.w3.org/2000/svg" viewBox="0 0 1536 1024" width="512" height="341">
  <rect x="0" y="0" width="1536" height="1024" fill="#f8f9fa"/>
  <rect x="15" y="530" width="240" height="22" fill="none" stroke="#333" stroke-width="2"/>
  <text x="23" y="550" font-family="monospace" font-size="14" fill="#666">240x22</text>
  <rect x="28" y="506" width="17" height="38" fill="none" stroke="#333" stroke-width="2"/>
  <text x="36" y="526" font-family="monospace" font-size="14" fill="#666">17x38</text>
  <rect x="1008" y="722" width="153" height="22" fill="none" stroke="#333" stroke-width="2"/>
  <text x="1016" y="742" font-family="monospace" font-size="14" fill="#666">153x22</text>
  <rect x="1008" y="722" width="153" height="32" fill="none" stroke="#333" stroke-width="2"/>
  <text x="1016" y="742" font-family="monospace" font-size="14" fill="#666">153x32</text>
  <rect x="1009" y="720" width="151" height="24" fill="none" stroke="#333" stroke-width="2"/>
  <text x="1017" y="740" font-family="monospace" font-size="14" fill="#666">151x24</text>
  <rect x="1009" y="720" width="151" height="34" fill="none" stroke="#333" stroke-width="2"/>
  <text x="1017" y="740" font-family="monospace" font-size="14" fill="#666">151x34</text>
  <rect x="1010" y="718" width="149" height="26" fill="none" stroke="#333" stroke-width="2"/>
  <text x="1018" y="738" font-family="monospace" font-size="14" fill="#666">149x26</text>
  <rect x="1010" y="718" width="149" height="36" fill="none" stroke="#333" stroke-width="2"/>
  <text x="1018" y="738" font-family="monospace" font-size="14" fill="#666">149x36</text>
  <rect x="1013" y="716" width="143" height="28" fill="none" stroke="#333" stroke-width="2"/>
  <text x="1021" y="736" font-family="monospace" font-size="14" fill="#666">143x28</text>
  <rect x="1013" y="716" width="143" height="38" fill="none" stroke="#333" stroke-width="2"/>
  <text x="1021" y="736" font-family="monospace" font-size="14" fill="#666">143x38</text>
  <rect x="1474" y="24" width="11" height="3" fill="#333" rx="1"/>
  <rect x="1410" y="26" width="14" height="3" fill="#333" rx="1"/>
  <rect x="1409" y="28" width="16" height="3" fill="#333" rx="1"/>
  <rect x="42" y="30" width="11" height="3" fill="#333" rx="1"/>
  <rect x="114" y="30" width="12" height="3" fill="#333" rx="1"/>
  <rect x="1408" y="30" width="10" height="3" fill="#333" rx="1"/>
  <rect x="1408" y="34" width="10" height="3" fill="#333" rx="1"/>
  <rect x="1408" y="36" width="18" height="3" fill="#333" rx="1"/>
  <rect x="1395" y="52" width="20" height="3" fill="#333" rx="1"/>
  <rect x="303" y="58" width="12" height="3" fill="#333" rx="1"/>
  <rect x="195" y="62" width="10" height="3" fill="#333" rx="1"/>
  <rect x="342" y="66" width="11" height="3" fill="#333" rx="1"/>
  <rect x="384" y="66" width="10" height="3" fill="#333" rx="1"/>
  <rect x="302" y="72" width="13" height="3" fill="#333" rx="1"/>
  <rect x="433" y="72" width="9" height="3" fill="#333" rx="1"/>
  <rect x="144" y="116" width="10" height="3" fill="#333" rx="1"/>
  <rect x="332" y="116" width="10" height="3" fill="#333" rx="1"/>
  <rect x="362" y="116" width="9" height="3" fill="#333" rx="1"/>
  <rect x="375" y="116" width="9" height="3" fill="#333" rx="1"/>
  <rect x="388" y="116" width="9" height="3" fill="#333" rx="1"/>
  <rect x="32" y="190" width="12" height="3" fill="#333" rx="1"/>
  <rect x="76" y="202" width="11" height="3" fill="#333" rx="1"/>
  <rect x="33" y="206" width="12" height="3" fill="#333" rx="1"/>
  <rect x="34" y="362" width="9" height="3" fill="#333" rx="1"/>
  <rect x="773" y="370" width="40" height="3" fill="#333" rx="1"/>
  <rect x="848" y="370" width="29" height="3" fill="#333" rx="1"/>
  <rect x="905" y="370" width="28" height="3" fill="#333" rx="1"/>
  <rect x="936" y="370" width="29" height="3" fill="#333" rx="1"/>
  <rect x="30" y="402" width="13" height="3" fill="#333" rx="1"/>
  <rect x="80" y="408" width="10" height="3" fill="#333" rx="1"/>
</svg>