<svg xmlns="http://www.w3.org/2000/svg" viewBox="0 0 1586 992" width="528" height="330">
  <rect x="0" y="0" width="1586" height="992" fill="#f8f9fa"/>
  <rect x="523" y="572" width="29" height="28" fill="none" stroke="#333" stroke-width="2"/>
  <text x="531" y="592" font-family="monospace" font-size="14" fill="#666">29x28</text>
  <rect x="1375" y="82" width="171" height="22" fill="none" stroke="#333" stroke-width="2"/>
  <text x="1383" y="102" font-family="monospace" font-size="14" fill="#666">171x22</text>
  <rect x="1537" y="20" width="12" height="3" fill="#333" rx="1"/>
  <rect x="35" y="26" width="10" height="3" fill="#333" rx="1"/>
  <rect x="98" y="26" width="10" height="3" fill="#333" rx="1"/>
  <rect x="66" y="34" width="10" height="3" fill="#333" rx="1"/>
  <rect x="35" y="36" width="10" height="3" fill="#333" rx="1"/>
  <rect x="50" y="36" width="10" height="3" fill="#333" rx="1"/>
  <rect x="82" y="36" width="10" height="3" fill="#333" rx="1"/>
  <rect x="98" y="36" width="10" height="3" fill="#333" rx="1"/>
  <rect x="306" y="54" width="9" height="3" fill="#333" rx="1"/>
  <rect x="332" y="54" width="9" height="3" fill="#333" rx="1"/>
  <rect x="388" y="54" width="11" height="3" fill="#333" rx="1"/>
  <rect x="410" y="54" width="11" height="3" fill="#333" rx="1"/>
  <rect x="435" y="54" width="10" height="3" fill="#333" rx="1"/>
  <rect x="1379" y="78" width="163" height="3" fill="#333" rx="1"/>
  <rect x="1376" y="80" width="169" height="3" fill="#333" rx="1"/>
  <rect x="1375" y="82" width="171" height="3" fill="#333" rx="1"/>
  <rect x="1375" y="84" width="171" height="3" fill="#333" rx="1"/>
  <rect x="1375" y="86" width="171" height="3" fill="#333" rx="1"/>
  <rect x="1375" y="92" width="16" height="3" fill="#333" rx="1"/>
  <rect x="1399" y="92" width="17" height="3" fill="#333" rx="1"/>
  <rect x="1417" y="92" width="39" height="3" fill="#333" rx="1"/>
  <rect x="1458" y="92" width="21" height="3" fill="#333" rx="1"/>
  <rect x="1480" y="92" width="35" height="3" fill="#333" rx="1"/>
  <rect x="1137" y="158" width="12" height="3" fill="#333" rx="1"/>
  <rect x="25" y="166" width="10" height="3" fill="#333" rx="1"/>
  <rect x="24" y="274" width="12" height="3" fill="#333" rx="1"/>
  <rect x="23" y="290" width="14" height="3" fill="#333" rx="1"/>
  <rect x="210" y="356" width="12" height="3" fill="#333" rx="1"/>
  <rect x="23" y="362" width="14" height="3" fill="#333" rx="1"/>
  <rect x="25" y="500" width="9" height="3" fill="#333" rx="1"/>
  <rect x="22" y="506" width="15" height="3" fill="#333" rx="1"/>
</svg>