<svg xmlns="http://www.w3.org/2000/svg" viewBox="0 0 1305 816" width="435" height="272">
  <rect x="0" y="0" width="1305" height="816" fill="#f8f9fa"/>
  <rect x="5" y="280" width="197" height="22" fill="none" stroke="#333" stroke-width="2"/>
  <text x="13" y="300" font-family="monospace" font-size="14" fill="#666">197x22</text>
  <rect x="445" y="148" width="21" height="24" fill="none" stroke="#333" stroke-width="2"/>
  <text x="453" y="168" font-family="monospace" font-size="14" fill="#666">21x24</text>
  <rect x="445" y="148" width="21" height="36" fill="none" stroke="#333" stroke-width="2"/>
  <text x="453" y="168" font-family="monospace" font-size="14" fill="#666">21x36</text>
  <rect x="1168" y="242" width="71" height="28" fill="none" stroke="#333" stroke-width="2"/>
  <text x="1176" y="262" font-family="monospace" font-size="14" fill="#666">71x28</text>
  <rect x="1261" y="16" width="13" height="3" fill="#333" rx="1"/>
  <rect x="29" y="20" width="9" height="3" fill="#333" rx="1"/>
  <rect x="81" y="20" width="9" height="3" fill="#333" rx="1"/>
  <rect x="322" y="42" width="9" height="3" fill="#333" rx="1"/>
  <rect x="1262" y="48" width="12" height="3" fill="#333" rx="1"/>
  <rect x="249" y="92" width="9" height="3" fill="#333" rx="1"/>
  <rect x="280" y="92" width="10" height="3" fill="#333" rx="1"/>
  <rect x="298" y="92" width="9" height="3" fill="#333" rx="1"/>
  <rect x="330" y="92" width="10" height="3" fill="#333" rx="1"/>
  <rect x="382" y="92" width="9" height="3" fill="#333" rx="1"/>
  <rect x="19" y="136" width="11" height="3" fill="#333" rx="1"/>
  <rect x="20" y="148" width="10" height="3" fill="#333" rx="1"/>
  <rect x="445" y="148" width="21" height="3" fill="#333" rx="1"/>
  <rect x="702" y="148" width="18" height="3" fill="#333" rx="1"/>
  <rect x="966" y="152" width="11" height="3" fill="#333" rx="1"/>
  <rect x="449" y="156" width="13" height="3" fill="#333" rx="1"/>
  <rect x="449" y="160" width="12" height="3" fill="#333" rx="1"/>
  <rect x="449" y="164" width="12" height="3" fill="#333" rx="1"/>
  <rect x="967" y="166" width="9" height="3" fill="#333" rx="1"/>
  <rect x="449" y="172" width="12" height="3" fill="#333" rx="1"/>
  <rect x="439" y="178" width="19" height="3" fill="#333" rx="1"/>
  <rect x="1176" y="178" width="9" height="3" fill="#333" rx="1"/>
  <rect x="275" y="180" width="12" height="3" fill="#333" rx="1"/>
  <rect x="1047" y="180" width="12" height="3" fill="#333" rx="1"/>
  <rect x="20" y="196" width="10" height="3" fill="#333" rx="1"/>
  <rect x="19" y="202" width="12" height="3" fill="#333" rx="1"/>
  <rect x="18" y="206" width="15" height="3" fill="#333" rx="1"/>
  <rect x="23" y="256" width="10" height="3" fill="#333" rx="1"/>
  <rect x="1179" y="262" width="9" height="3" fill="#333" rx="1"/>
  <rect x="1168" y="270" width="71" height="3" fill="#333" rx="1"/>
  <rect x="9" y="276" width="192" height="3" fill="#333" rx="1"/>
  <rect x="6" y="278" width="196" height="3" fill="#333" rx="1"/>
  <rect x="5" y="280" width="197" height="3" fill="#333" rx="1"/>
  <rect x="5" y="282" width="197" height="3" fill="#333" rx="1"/>
</svg>