<svg xmlns="http://www.w3.org/2000/svg" viewBox="0 0 1586 992" width="528" height="330">
  <rect x="0" y="0" width="1586" height="992" fill="#f8f9fa"/>
  <rect x="514" y="148" width="24" height="26" fill="none" stroke="#333" stroke-width="2"/>
  <text x="522" y="168" font-family="monospace" font-size="14" fill="#666">24x26</text>
  <rect x="514" y="148" width="24" height="36" fill="none" stroke="#333" stroke-width="2"/>
  <text x="522" y="168" font-family="monospace" font-size="14" fill="#666">24x36</text>
  <rect x="543" y="330" width="53" height="160" fill="#e8f0fe" stroke="#333" stroke-width="2"/>
  <text x="551" y="350" font-family="monospace" font-size="14" fill="#666">53x160</text>
  <rect x="1123" y="750" width="24" height="28" fill="none" stroke="#333" stroke-width="2"/>
  <text x="1131" y="770" font-family="monospace" font-size="14" fill="#666">24x28</text>
  <rect x="66" y="36" width="10" height="3" fill="#333" rx="1"/>
  <rect x="36" y="38" width="9" height="3" fill="#333" rx="1"/>
  <rect x="51" y="38" width="9" height="3" fill="#333" rx="1"/>
  <rect x="83" y="38" width="9" height="3" fill="#333" rx="1"/>
  <rect x="99" y="38" width="9" height="3" fill="#333" rx="1"/>
  <rect x="308" y="54" width="12" height="3" fill="#333" rx="1"/>
  <rect x="349" y="54" width="12" height="3" fill="#333" rx="1"/>
  <rect x="387" y="54" width="11" height="3" fill="#333" rx="1"/>
  <rect x="440" y="54" width="12" height="3" fill="#333" rx="1"/>
  <rect x="296" y="58" width="10" height="3" fill="#333" rx="1"/>
  <rect x="37" y="130" width="14" height="3" fill="#333" rx="1"/>
  <rect x="318" y="130" width="9" height="3" fill="#333" rx="1"/>
  <rect x="329" y="130" width="9" height="3" fill="#333" rx="1"/>
  <rect x="514" y="148" width="24" height="3" fill="#333" rx="1"/>
  <rect x="827" y="148" width="21" height="3" fill="#333" rx="1"/>
  <rect x="1136" y="152" width="11" height="3" fill="#333" rx="1"/>
  <rect x="1153" y="152" width="11" height="3" fill="#333" rx="1"/>
  <rect x="332" y="154" width="9" height="3" fill="#333" rx="1"/>
  <rect x="658" y="154" width="13" height="3" fill="#333" rx="1"/>
  <rect x="675" y="154" width="10" height="3" fill="#333" rx="1"/>
  <rect x="330" y="172" width="13" height="3" fill="#333" rx="1"/>
  <rect x="348" y="172" width="9" height="3" fill="#333" rx="1"/>
  <rect x="619" y="172" width="13" height="3" fill="#333" rx="1"/>
  <rect x="923" y="172" width="14" height="3" fill="#333" rx="1"/>
  <rect x="958" y="172" width="9" height="3" fill="#333" rx="1"/>
  <rect x="528" y="190" width="12" height="3" fill="#333" rx="1"/>
  <rect x="510" y="192" width="27" height="3" fill="#333" rx="1"/>
  <rect x="832" y="192" width="10" height="3" fill="#333" rx="1"/>
  <rect x="367" y="202" width="9" height="3" fill="#333" rx="1"/>
  <rect x="22" y="274" width="14" height="3" fill="#333" rx="1"/>
  <rect x="29" y="278" width="11" height="3" fill="#333" rx="1"/>
  <rect x="944" y="278" width="11" height="3" fill="#333" rx="1"/>
  <rect x="957" y="278" width="11" height="3" fill="#333" rx="1"/>
  <rect x="1456" y="278" width="11" height="3" fill="#333" rx="1"/>
</svg>