<svg xmlns="http://www.w3.org/2000/svg" viewBox="0 0 1536 1024" width="512" height="341">
  <rect x="0" y="0" width="1536" height="1024" fill="#f8f9fa"/>
  <rect x="1435" y="24" width="10" height="3" fill="#333" rx="1"/>
  <rect x="1433" y="26" width="14" height="3" fill="#333" rx="1"/>
  <rect x="36" y="28" width="12" height="3" fill="#333" rx="1"/>
  <rect x="111" y="28" width="12" height="3" fill="#333" rx="1"/>
  <rect x="1432" y="28" width="9" height="3" fill="#333" rx="1"/>
  <rect x="1296" y="34" width="10" height="3" fill="#333" rx="1"/>
  <rect x="1433" y="34" width="14" height="3" fill="#333" rx="1"/>
  <rect x="71" y="36" width="12" height="3" fill="#333" rx="1"/>
  <rect x="1434" y="36" width="11" height="3" fill="#333" rx="1"/>
  <rect x="37" y="40" width="9" height="3" fill="#333" rx="1"/>
  <rect x="297" y="58" width="9" height="3" fill="#333" rx="1"/>
  <rect x="456" y="58" width="10" height="3" fill="#333" rx="1"/>
  <rect x="294" y="60" width="14" height="3" fill="#333" rx="1"/>
  <rect x="454" y="60" width="14" height="3" fill="#333" rx="1"/>
  <rect x="952" y="60" width="13" height="3" fill="#333" rx="1"/>
  <rect x="312" y="70" width="13" height="3" fill="#333" rx="1"/>
  <rect x="394" y="70" width="14" height="3" fill="#333" rx="1"/>
  <rect x="484" y="70" width="14" height="3" fill="#333" rx="1"/>
  <rect x="394" y="72" width="15" height="3" fill="#333" rx="1"/>
  <rect x="294" y="74" width="15" height="3" fill="#333" rx="1"/>
  <rect x="150" y="110" width="10" height="3" fill="#333" rx="1"/>
  <rect x="131" y="114" width="9" height="3" fill="#333" rx="1"/>
  <rect x="43" y="124" width="9" height="3" fill="#333" rx="1"/>
  <rect x="327" y="154" width="9" height="3" fill="#333" rx="1"/>
  <rect x="448" y="154" width="9" height="3" fill="#333" rx="1"/>
  <rect x="385" y="156" width="10" height="3" fill="#333" rx="1"/>
  <rect x="1404" y="264" width="9" height="3" fill="#333" rx="1"/>
  <rect x="1444" y="264" width="15" height="3" fill="#333" rx="1"/>
  <rect x="903" y="270" width="10" height="3" fill="#333" rx="1"/>
  <rect x="919" y="270" width="10" height="3" fill="#333" rx="1"/>
  <rect x="935" y="270" width="10" height="3" fill="#333" rx="1"/>
  <rect x="951" y="270" width="10" height="3" fill="#333" rx="1"/>
  <rect x="967" y="270" width="9" height="3" fill="#333" rx="1"/>
</svg>