<svg xmlns="http://www.w3.org/2000/svg" viewBox="0 0 1586 992" width="528" height="330">
  <rect x="0" y="0" width="1586" height="992" fill="#f8f9fa"/>
  <rect x="581" y="166" width="12" height="28" fill="none" stroke="#333" stroke-width="2"/>
  <text x="589" y="186" font-family="monospace" font-size="14" fill="#666">12x28</text>
  <rect x="1423" y="258" width="138" height="22" fill="none" stroke="#333" stroke-width="2"/>
  <text x="1431" y="278" font-family="monospace" font-size="14" fill="#666">138x22</text>
  <rect x="66" y="36" width="10" height="3" fill="#333" rx="1"/>
  <rect x="36" y="38" width="9" height="3" fill="#333" rx="1"/>
  <rect x="51" y="38" width="9" height="3" fill="#333" rx="1"/>
  <rect x="98" y="38" width="9" height="3" fill="#333" rx="1"/>
  <rect x="922" y="44" width="9" height="3" fill="#333" rx="1"/>
  <rect x="339" y="54" width="9" height="3" fill="#333" rx="1"/>
  <rect x="360" y="54" width="12" height="3" fill="#333" rx="1"/>
  <rect x="339" y="60" width="9" height="3" fill="#333" rx="1"/>
  <rect x="376" y="60" width="10" height="3" fill="#333" rx="1"/>
  <rect x="1532" y="60" width="16" height="3" fill="#333" rx="1"/>
  <rect x="25" y="166" width="10" height="3" fill="#333" rx="1"/>
  <rect x="581" y="166" width="12" height="3" fill="#333" rx="1"/>
  <rect x="351" y="170" width="9" height="3" fill="#333" rx="1"/>
  <rect x="624" y="170" width="9" height="3" fill="#333" rx="1"/>
  <rect x="1142" y="170" width="10" height="3" fill="#333" rx="1"/>
  <rect x="23" y="180" width="13" height="3" fill="#333" rx="1"/>
  <rect x="306" y="180" width="9" height="3" fill="#333" rx="1"/>
  <rect x="583" y="180" width="9" height="3" fill="#333" rx="1"/>
  <rect x="868" y="180" width="10" height="3" fill="#333" rx="1"/>
  <rect x="303" y="182" width="24" height="3" fill="#333" rx="1"/>
  <rect x="850" y="190" width="21" height="3" fill="#333" rx="1"/>
  <rect x="299" y="192" width="32" height="3" fill="#333" rx="1"/>
  <rect x="573" y="194" width="29" height="3" fill="#333" rx="1"/>
  <rect x="21" y="252" width="18" height="3" fill="#333" rx="1"/>
  <rect x="1428" y="254" width="129" height="3" fill="#333" rx="1"/>
  <rect x="1424" y="256" width="136" height="3" fill="#333" rx="1"/>
  <rect x="1423" y="258" width="138" height="3" fill="#333" rx="1"/>
  <rect x="1423" y="260" width="138" height="3" fill="#333" rx="1"/>
  <rect x="1423" y="270" width="17" height="3" fill="#333" rx="1"/>
  <rect x="1442" y="270" width="15" height="3" fill="#333" rx="1"/>
  <rect x="1488" y="270" width="11" height="3" fill="#333" rx="1"/>
  <rect x="1500" y="270" width="9" height="3" fill="#333" rx="1"/>
  <rect x="1543" y="270" width="18" height="3" fill="#333" rx="1"/>
</svg>