<svg xmlns="http://www.w3.org/2000/svg" viewBox="0 0 1586 992" width="528" height="330">
  <rect x="0" y="0" width="1586" height="992" fill="#f8f9fa"/>
  <rect x="614" y="174" width="28" height="26" fill="none" stroke="#333" stroke-width="2"/>
  <text x="622" y="194" font-family="monospace" font-size="14" fill="#666">28x26</text>
  <rect x="1378" y="114" width="171" height="22" fill="none" stroke="#333" stroke-width="2"/>
  <text x="1386" y="134" font-family="monospace" font-size="14" fill="#666">171x22</text>
  <rect x="1536" y="20" width="11" height="3" fill="#333" rx="1"/>
  <rect x="35" y="26" width="10" height="3" fill="#333" rx="1"/>
  <rect x="97" y="26" width="11" height="3" fill="#333" rx="1"/>
  <rect x="66" y="34" width="10" height="3" fill="#333" rx="1"/>
  <rect x="34" y="36" width="11" height="3" fill="#333" rx="1"/>
  <rect x="50" y="36" width="9" height="3" fill="#333" rx="1"/>
  <rect x="82" y="36" width="10" height="3" fill="#333" rx="1"/>
  <rect x="97" y="36" width="11" height="3" fill="#333" rx="1"/>
  <rect x="296" y="56" width="9" height="3" fill="#333" rx="1"/>
  <rect x="307" y="56" width="9" height="3" fill="#333" rx="1"/>
  <rect x="319" y="56" width="9" height="3" fill="#333" rx="1"/>
  <rect x="332" y="56" width="11" height="3" fill="#333" rx="1"/>
  <rect x="347" y="56" width="10" height="3" fill="#333" rx="1"/>
  <rect x="1380" y="112" width="168" height="3" fill="#333" rx="1"/>
  <rect x="1378" y="114" width="171" height="3" fill="#333" rx="1"/>
  <rect x="1378" y="116" width="172" height="3" fill="#333" rx="1"/>
  <rect x="1378" y="118" width="172" height="3" fill="#333" rx="1"/>
  <rect x="1293" y="120" width="11" height="3" fill="#333" rx="1"/>
  <rect x="1378" y="132" width="47" height="3" fill="#333" rx="1"/>
  <rect x="1426" y="132" width="83" height="3" fill="#333" rx="1"/>
  <rect x="1511" y="132" width="39" height="3" fill="#333" rx="1"/>
  <rect x="1378" y="134" width="172" height="3" fill="#333" rx="1"/>
  <rect x="1378" y="136" width="172" height="3" fill="#333" rx="1"/>
  <rect x="365" y="164" width="9" height="3" fill="#333" rx="1"/>
  <rect x="673" y="164" width="9" height="3" fill="#333" rx="1"/>
  <rect x="21" y="172" width="17" height="3" fill="#333" rx="1"/>
  <rect x="305" y="174" width="12" height="3" fill="#333" rx="1"/>
  <rect x="614" y="174" width="28" height="3" fill="#333" rx="1"/>
  <rect x="921" y="176" width="10" height="3" fill="#333" rx="1"/>
  <rect x="318" y="178" width="17" height="3" fill="#333" rx="1"/>
</svg>