<svg xmlns="http://www.w3.org/2000/svg" viewBox="0 0 1305 816" width="435" height="272">
  <rect x="0" y="0" width="1305" height="816" fill="#f8f9fa"/>
  <rect x="513" y="612" width="9" height="22" fill="none" stroke="#333" stroke-width="2"/>
  <text x="521" y="632" font-family="monospace" font-size="14" fill="#666">9x22</text>
  <rect x="544" y="446" width="39" height="24" fill="none" stroke="#333" stroke-width="2"/>
  <text x="552" y="466" font-family="monospace" font-size="14" fill="#666">39x24</text>
  <rect x="546" y="442" width="79" height="40" fill="none" stroke="#333" stroke-width="2"/>
  <text x="554" y="462" font-family="monospace" font-size="14" fill="#666">79x40</text>
  <rect x="548" y="438" width="61" height="30" fill="none" stroke="#333" stroke-width="2"/>
  <text x="556" y="458" font-family="monospace" font-size="14" fill="#666">61x30</text>
  <rect x="548" y="444" width="45" height="24" fill="none" stroke="#333" stroke-width="2"/>
  <text x="556" y="464" font-family="monospace" font-size="14" fill="#666">45x24</text>
  <rect x="549" y="424" width="25" height="22" fill="none" stroke="#333" stroke-width="2"/>
  <text x="557" y="444" font-family="monospace" font-size="14" fill="#666">25x22</text>
  <rect x="549" y="424" width="25" height="38" fill="none" stroke="#333" stroke-width="2"/>
  <text x="557" y="444" font-family="monospace" font-size="14" fill="#666">25x38</text>
  <rect x="549" y="426" width="19" height="22" fill="none" stroke="#333" stroke-width="2"/>
  <text x="557" y="446" font-family="monospace" font-size="14" fill="#666">19x22</text>
  <rect x="549" y="426" width="19" height="36" fill="none" stroke="#333" stroke-width="2"/>
  <text x="557" y="446" font-family="monospace" font-size="14" fill="#666">19x36</text>
  <rect x="550" y="428" width="9" height="22" fill="none" stroke="#333" stroke-width="2"/>
  <text x="558" y="448" font-family="monospace" font-size="14" fill="#666">9x22</text>
  <rect x="550" y="428" width="9" height="34" fill="none" stroke="#333" stroke-width="2"/>
  <text x="558" y="448" font-family="monospace" font-size="14" fill="#666">9x34</text>
  <rect x="551" y="422" width="81" height="32" fill="none" stroke="#333" stroke-width="2"/>
  <text x="559" y="442" font-family="monospace" font-size="14" fill="#666">81x32</text>
  <rect x="551" y="422" width="81" height="42" fill="none" stroke="#333" stroke-width="2"/>
  <text x="559" y="442" font-family="monospace" font-size="14" fill="#666">81x42</text>
  <rect x="554" y="420" width="77" height="22" fill="none" stroke="#333" stroke-width="2"/>
  <text x="562" y="440" font-family="monospace" font-size="14" fill="#666">77x22</text>
  <rect x="554" y="420" width="77" height="34" fill="none" stroke="#333" stroke-width="2"/>
  <text x="562" y="440" font-family="monospace" font-size="14" fill="#666">77x34</text>
  <rect x="554" y="420" width="77" height="44" fill="none" stroke="#333" stroke-width="2"/>
  <text x="562" y="440" font-family="monospace" font-size="14" fill="#666">77x44</text>
  <rect x="555" y="436" width="45" height="22" fill="none" stroke="#333" stroke-width="2"/>
  <text x="563" y="456" font-family="monospace" font-size="14" fill="#666">45x22</text>
  <rect x="555" y="436" width="45" height="32" fill="none" stroke="#333" stroke-width="2"/>
  <text x="563" y="456" font-family="monospace" font-size="14" fill="#666">45x32</text>
  <rect x="555" y="454" width="81" height="28" fill="none" stroke="#333" stroke-width="2"/>
  <text x="563" y="474" font-family="monospace" font-size="14" fill="#666">81x28</text>
  <rect x="558" y="418" width="68" height="34" fill="none" stroke="#333" stroke-width="2"/>
  <text x="566" y="438" font-family="monospace" font-size="14" fill="#666">68x34</text>
  <rect x="568" y="432" width="59" height="34" fill="none" stroke="#333" stroke-width="2"/>
  <text x="576" y="452" font-family="monospace" font-size="14" fill="#666">59x34</text>
  <rect x="573" y="416" width="41" height="34" fill="none" stroke="#333" stroke-width="2"/>
  <text x="581" y="436" font-family="monospace" font-size="14" fill="#666">41x34</text>
  <rect x="573" y="428" width="46" height="22" fill="none" stroke="#333" stroke-width="2"/>
  <text x="581" y="448" font-family="monospace" font-size="14" fill="#666">46x22</text>
  <rect x="587" y="414" width="14" height="34" fill="none" stroke="#333" stroke-width="2"/>
  <text x="595" y="434" font-family="monospace" font-size="14" fill="#666">14x34</text>
  <rect x="607" y="424" width="24" height="22" fill="none" stroke="#333" stroke-width="2"/>
  <text x="615" y="444" font-family="monospace" font-size="14" fill="#666">24x22</text>
  <rect x="612" y="436" width="23" height="22" fill="none" stroke="#333" stroke-width="2"/>
  <text x="620" y="456" font-family="monospace" font-size="14" fill="#666">23x22</text>
  <rect x="612" y="436" width="23" height="32" fill="none" stroke="#333" stroke-width="2"/>
  <text x="620" y="456" font-family="monospace" font-size="14" fill="#666">23x32</text>
  <rect x="618" y="430" width="13" height="28" fill="none" stroke="#333" stroke-width="2"/>
  <text x="626" y="450" font-family="monospace" font-size="14" fill="#666">13x28</text>
  <rect x="618" y="430" width="13" height="38" fill="none" stroke="#333" stroke-width="2"/>
  <text x="626" y="450" font-family="monospace" font-size="14" fill="#666">13x38</text>
  <rect x="619" y="426" width="9" height="22" fill="none" stroke="#333" stroke-width="2"/>
  <text x="627" y="446" font-family="monospace" font-size="14" fill="#666">9x22</text>
  <rect x="619" y="426" width="9" height="42" fill="none" stroke="#333" stroke-width="2"/>
  <text x="627" y="446" font-family="monospace" font-size="14" fill="#666">9x42</text>
  <rect x="619" y="438" width="17" height="30" fill="none" stroke="#333" stroke-width="2"/>
  <text x="627" y="458" font-family="monospace" font-size="14" fill="#666">17x30</text>
  <rect x="836" y="672" width="164" height="22" fill="none" stroke="#333" stroke-width="2"/>
  <text x="844" y="692" font-family="monospace" font-size="14" fill="#666">164x22</text>
  <rect x="28" y="22" width="9" height="3" fill="#333" rx="1"/>
  <rect x="54" y="28" width="9" height="3" fill="#333" rx="1"/>
  <rect x="28" y="30" width="9" height="3" fill="#333" rx="1"/>
  <rect x="80" y="30" width="9" height="3" fill="#333" rx="1"/>
  <rect x="1216" y="38" width="17" height="3" fill="#333" rx="1"/>
  <rect x="256" y="124" width="11" height="3" fill="#333" rx="1"/>
  <rect x="272" y="124" width="12" height="3" fill="#333" rx="1"/>
  <rect x="293" y="124" width="9" height="3" fill="#333" rx="1"/>
  <rect x="312" y="124" width="10" height="3" fill="#333" rx="1"/>
  <rect x="326" y="124" width="9" height="3" fill="#333" rx="1"/>
  <rect x="256" y="134" width="11" height="3" fill="#333" rx="1"/>
  <rect x="272" y="134" width="13" height="3" fill="#333" rx="1"/>
  <rect x="312" y="134" width="10" height="3" fill="#333" rx="1"/>
  <rect x="351" y="134" width="12" height="3" fill="#333" rx="1"/>
  <rect x="374" y="134" width="11" height="3" fill="#333" rx="1"/>
  <rect x="19" y="412" width="10" height="3" fill="#333" rx="1"/>
  <rect x="587" y="414" width="14" height="3" fill="#333" rx="1"/>
  <rect x="18" y="416" width="13" height="3" fill="#333" rx="1"/>
  <rect x="573" y="416" width="41" height="3" fill="#333" rx="1"/>
  <rect x="558" y="418" width="68" height="3" fill="#333" rx="1"/>
  <rect x="575" y="430" width="39" height="3" fill="#333" rx="1"/>
  <rect x="618" y="430" width="13" height="3" fill="#333" rx="1"/>
  <rect x="568" y="432" width="59" height="3" fill="#333" rx="1"/>
  <rect x="562" y="434" width="35" height="3" fill="#333" rx="1"/>
  <rect x="603" y="434" width="30" height="3" fill="#333" rx="1"/>
  <rect x="543" y="452" width="10" height="3" fill="#333" rx="1"/>
  <rect x="565" y="452" width="53" height="3" fill="#333" rx="1"/>
  <rect x="555" y="454" width="81" height="3" fill="#333" rx="1"/>
  <rect x="559" y="456" width="78" height="3" fill="#333" rx="1"/>
  <rect x="552" y="458" width="44" height="3" fill="#333" rx="1"/>
</svg>