<svg xmlns="http://www.w3.org/2000/svg" viewBox="0 0 1586 992" width="528" height="330">
  <rect x="0" y="0" width="1586" height="992" fill="#f8f9fa"/>
  <rect x="350" y="678" width="69" height="22" fill="none" stroke="#333" stroke-width="2"/>
  <text x="358" y="698" font-family="monospace" font-size="14" fill="#666">69x22</text>
  <rect x="353" y="666" width="63" height="22" fill="none" stroke="#333" stroke-width="2"/>
  <text x="361" y="686" font-family="monospace" font-size="14" fill="#666">63x22</text>
  <rect x="353" y="666" width="63" height="32" fill="none" stroke="#333" stroke-width="2"/>
  <text x="361" y="686" font-family="monospace" font-size="14" fill="#666">63x32</text>
  <rect x="354" y="662" width="60" height="22" fill="none" stroke="#333" stroke-width="2"/>
  <text x="362" y="682" font-family="monospace" font-size="14" fill="#666">60x22</text>
  <rect x="354" y="662" width="60" height="36" fill="none" stroke="#333" stroke-width="2"/>
  <text x="362" y="682" font-family="monospace" font-size="14" fill="#666">60x36</text>
  <rect x="354" y="664" width="61" height="22" fill="none" stroke="#333" stroke-width="2"/>
  <text x="362" y="684" font-family="monospace" font-size="14" fill="#666">61x22</text>
  <rect x="354" y="664" width="61" height="34" fill="none" stroke="#333" stroke-width="2"/>
  <text x="362" y="684" font-family="monospace" font-size="14" fill="#666">61x34</text>
  <rect x="355" y="658" width="58" height="24" fill="none" stroke="#333" stroke-width="2"/>
  <text x="363" y="678" font-family="monospace" font-size="14" fill="#666">58x24</text>
  <rect x="355" y="658" width="58" height="40" fill="none" stroke="#333" stroke-width="2"/>
  <text x="363" y="678" font-family="monospace" font-size="14" fill="#666">58x40</text>
  <rect x="355" y="660" width="59" height="22" fill="none" stroke="#333" stroke-width="2"/>
  <text x="363" y="680" font-family="monospace" font-size="14" fill="#666">59x22</text>
  <rect x="355" y="660" width="59" height="38" fill="none" stroke="#333" stroke-width="2"/>
  <text x="363" y="680" font-family="monospace" font-size="14" fill="#666">59x38</text>
  <rect x="356" y="654" width="56" height="28" fill="none" stroke="#333" stroke-width="2"/>
  <text x="364" y="674" font-family="monospace" font-size="14" fill="#666">56x28</text>
  <rect x="356" y="654" width="56" height="46" fill="none" stroke="#333" stroke-width="2"/>
  <text x="364" y="674" font-family="monospace" font-size="14" fill="#666">56x46</text>
  <rect x="356" y="656" width="57" height="26" fill="none" stroke="#333" stroke-width="2"/>
  <text x="364" y="676" font-family="monospace" font-size="14" fill="#666">57x26</text>
  <rect x="356" y="656" width="57" height="44" fill="none" stroke="#333" stroke-width="2"/>
  <text x="364" y="676" font-family="monospace" font-size="14" fill="#666">57x44</text>
  <rect x="357" y="652" width="55" height="32" fill="none" stroke="#333" stroke-width="2"/>
  <text x="365" y="672" font-family="monospace" font-size="14" fill="#666">55x32</text>
  <rect x="357" y="652" width="55" height="48" fill="none" stroke="#333" stroke-width="2"/>
  <text x="365" y="672" font-family="monospace" font-size="14" fill="#666">55x48</text>
  <rect x="360" y="624" width="44" height="22" fill="none" stroke="#333" stroke-width="2"/>
  <text x="368" y="644" font-family="monospace" font-size="14" fill="#666">44x22</text>
  <rect x="360" y="640" width="48" height="60" fill="#e8f0fe" stroke="#333" stroke-width="2"/>
  <text x="368" y="660" font-family="monospace" font-size="14" fill="#666">48x60</text>
  <rect x="361" y="626" width="47" height="74" fill="#e8f0fe" stroke="#333" stroke-width="2"/>
  <text x="369" y="646" font-family="monospace" font-size="14" fill="#666">47x74</text>
  <rect x="361" y="636" width="46" height="64" fill="#e8f0fe" stroke="#333" stroke-width="2"/>
  <text x="369" y="656" font-family="monospace" font-size="14" fill="#666">46x64</text>
  <rect x="365" y="622" width="38" height="22" fill="none" stroke="#333" stroke-width="2"/>
  <text x="373" y="642" font-family="monospace" font-size="14" fill="#666">38x22</text>
  <rect x="367" y="584" width="35" height="22" fill="none" stroke="#333" stroke-width="2"/>
  <text x="375" y="604" font-family="monospace" font-size="14" fill="#666">35x22</text>
  <rect x="367" y="584" width="35" height="32" fill="none" stroke="#333" stroke-width="2"/>
  <text x="375" y="604" font-family="monospace" font-size="14" fill="#666">35x32</text>
  <rect x="367" y="584" width="35" height="42" fill="none" stroke="#333" stroke-width="2"/>
  <text x="375" y="604" font-family="monospace" font-size="14" fill="#666">35x42</text>
  <rect x="367" y="586" width="35" height="22" fill="none" stroke="#333" stroke-width="2"/>
  <text x="375" y="606" font-family="monospace" font-size="14" fill="#666">35x22</text>
  <rect x="367" y="586" width="35" height="32" fill="none" stroke="#333" stroke-width="2"/>
  <text x="375" y="606" font-family="monospace" font-size="14" fill="#666">35x32</text>
  <rect x="367" y="586" width="35" height="42" fill="none" stroke="#333" stroke-width="2"/>
  <text x="375" y="606" font-family="monospace" font-size="14" fill="#666">35x42</text>
  <rect x="367" y="588" width="35" height="22" fill="none" stroke="#333" stroke-width="2"/>
  <text x="375" y="608" font-family="monospace" font-size="14" fill="#666">35x22</text>
  <rect x="367" y="588" width="35" height="32" fill="none" stroke="#333" stroke-width="2"/>
  <text x="375" y="608" font-family="monospace" font-size="14" fill="#666">35x32</text>
  <rect x="367" y="588" width="35" height="42" fill="none" stroke="#333" stroke-width="2"/>
  <text x="375" y="608" font-family="monospace" font-size="14" fill="#666">35x42</text>
  <rect x="368" y="574" width="34" height="22" fill="none" stroke="#333" stroke-width="2"/>
  <text x="376" y="594" font-family="monospace" font-size="14" fill="#666">34x22</text>
  <rect x="368" y="574" width="34" height="32" fill="none" stroke="#333" stroke-width="2"/>
  <text x="376" y="594" font-family="monospace" font-size="14" fill="#666">34x32</text>
  <rect x="368" y="574" width="34" height="42" fill="none" stroke="#333" stroke-width="2"/>
  <text x="376" y="594" font-family="monospace" font-size="14" fill="#666">34x42</text>
  <rect x="368" y="574" width="34" height="52" fill="#e8f0fe" stroke="#333" stroke-width="2"/>
  <text x="376" y="594" font-family="monospace" font-size="14" fill="#666">34x52</text>
  <rect x="368" y="576" width="34" height="22" fill="none" stroke="#333" stroke-width="2"/>
  <text x="376" y="596" font-family="monospace" font-size="14" fill="#666">34x22</text>
  <rect x="368" y="576" width="34" height="32" fill="none" stroke="#333" stroke-width="2"/>
  <text x="376" y="596" font-family="monospace" font-size="14" fill="#666">34x32</text>
  <rect x="368" y="576" width="34" height="42" fill="none" stroke="#333" stroke-width="2"/>
  <text x="376" y="596" font-family="monospace" font-size="14" fill="#666">34x42</text>
  <rect x="368" y="576" width="34" height="52" fill="#e8f0fe" stroke="#333" stroke-width="2"/>
  <text x="376" y="596" font-family="monospace" font-size="14" fill="#666">34x52</text>
  <rect x="368" y="578" width="34" height="22" fill="none" stroke="#333" stroke-width="2"/>
  <text x="376" y="598" font-family="monospace" font-size="14" fill="#666">34x22</text>
  <rect x="368" y="578" width="34" height="32" fill="none" stroke="#333" stroke-width="2"/>
  <text x="376" y="598" font-family="monospace" font-size="14" fill="#666">34x32</text>
  <rect x="368" y="578" width="34" height="42" fill="none" stroke="#333" stroke-width="2"/>
  <text x="376" y="598" font-family="monospace" font-size="14" fill="#666">34x42</text>
  <rect x="368" y="580" width="34" height="22" fill="none" stroke="#333" stroke-width="2"/>
  <text x="376" y="600" font-family="monospace" font-size="14" fill="#666">34x22</text>
  <rect x="368" y="580" width="34" height="32" fill="none" stroke="#333" stroke-width="2"/>
  <text x="376" y="600" font-family="monospace" font-size="14" fill="#666">34x32</text>
  <rect x="368" y="580" width="34" height="42" fill="none" stroke="#333" stroke-width="2"/>
  <text x="376" y="600" font-family="monospace" font-size="14" fill="#666">34x42</text>
  <rect x="368" y="580" width="34" height="52" fill="#e8f0fe" stroke="#333" stroke-width="2"/>
  <text x="376" y="600" font-family="monospace" font-size="14" fill="#666">34x52</text>
  <rect x="368" y="582" width="34" height="22" fill="none" stroke="#333" stroke-width="2"/>
  <text x="376" y="602" font-family="monospace" font-size="14" fill="#666">34x22</text>
  <rect x="368" y="582" width="34" height="32" fill="none" stroke="#333" stroke-width="2"/>
  <text x="376" y="602" font-family="monospace" font-size="14" fill="#666">34x32</text>
  <rect x="368" y="582" width="34" height="42" fill="none" stroke="#333" stroke-width="2"/>
  <text x="376" y="602" font-family="monospace" font-size="14" fill="#666">34x42</text>
  <rect x="368" y="582" width="34" height="52" fill="#e8f0fe" stroke="#333" stroke-width="2"/>
  <text x="376" y="602" font-family="monospace" font-size="14" fill="#666">34x52</text>
  <rect x="369" y="570" width="32" height="22" fill="none" stroke="#333" stroke-width="2"/>
  <text x="377" y="590" font-family="monospace" font-size="14" fill="#666">32x22</text>
  <rect x="369" y="570" width="32" height="32" fill="none" stroke="#333" stroke-width="2"/>
  <text x="377" y="590" font-family="monospace" font-size="14" fill="#666">32x32</text>
  <rect x="369" y="570" width="32" height="42" fill="none" stroke="#333" stroke-width="2"/>
  <text x="377" y="590" font-family="monospace" font-size="14" fill="#666">32x42</text>
  <rect x="369" y="570" width="32" height="52" fill="#e8f0fe" stroke="#333" stroke-width="2"/>
  <text x="377" y="590" font-family="monospace" font-size="14" fill="#666">32x52</text>
  <rect x="369" y="612" width="30" height="90" fill="#e8f0fe" stroke="#333" stroke-width="2"/>
  <text x="377" y="632" font-family="monospace" font-size="14" fill="#666">30x90</text>
  <rect x="370" y="566" width="30" height="22" fill="none" stroke="#333" stroke-width="2"/>
  <text x="378" y="586" font-family="monospace" font-size="14" fill="#666">30x22</text>
  <rect x="370" y="566" width="30" height="32" fill="none" stroke="#333" stroke-width="2"/>
  <text x="378" y="586" font-family="monospace" font-size="14" fill="#666">30x32</text>
  <rect x="370" y="566" width="30" height="42" fill="none" stroke="#333" stroke-width="2"/>
  <text x="378" y="586" font-family="monospace" font-size="14" fill="#666">30x42</text>
  <rect x="370" y="566" width="30" height="52" fill="#e8f0fe" stroke="#333" stroke-width="2"/>
  <text x="378" y="586" font-family="monospace" font-size="14" fill="#666">30x52</text>
  <rect x="370" y="568" width="30" height="22" fill="none" stroke="#333" stroke-width="2"/>
  <text x="378" y="588" font-family="monospace" font-size="14" fill="#666">30x22</text>
  <rect x="370" y="568" width="30" height="32" fill="none" stroke="#333" stroke-width="2"/>
  <text x="378" y="588" font-family="monospace" font-size="14" fill="#666">30x32</text>
  <rect x="370" y="568" width="30" height="42" fill="none" stroke="#333" stroke-width="2"/>
  <text x="378" y="588" font-family="monospace" font-size="14" fill="#666">30x42</text>
  <rect x="370" y="568" width="30" height="52" fill="#e8f0fe" stroke="#333" stroke-width="2"/>
  <text x="378" y="588" font-family="monospace" font-size="14" fill="#666">30x52</text>
  <rect x="370" y="572" width="31" height="22" fill="none" stroke="#333" stroke-width="2"/>
  <text x="378" y="592" font-family="monospace" font-size="14" fill="#666">31x22</text>
  <rect x="370" y="572" width="31" height="32" fill="none" stroke="#333" stroke-width="2"/>
  <text x="378" y="592" font-family="monospace" font-size="14" fill="#666">31x32</text>
  <rect x="370" y="572" width="31" height="42" fill="none" stroke="#333" stroke-width="2"/>
  <text x="378" y="592" font-family="monospace" font-size="14" fill="#666">31x42</text>
  <rect x="370" y="572" width="31" height="54" fill="#e8f0fe" stroke="#333" stroke-width="2"/>
  <text x="378" y="592" font-family="monospace" font-size="14" fill="#666">31x54</text>
  <rect x="370" y="610" width="29" height="92" fill="#e8f0fe" stroke="#333" stroke-width="2"/>
  <text x="378" y="630" font-family="monospace" font-size="14" fill="#666">29x92</text>
  <rect x="374" y="592" width="21" height="110" fill="#e8f0fe" stroke="#333" stroke-width="2"/>
  <text x="382" y="612" font-family="monospace" font-size="14" fill="#666">21x110</text>
  <rect x="374" y="602" width="20" height="100" fill="#e8f0fe" stroke="#333" stroke-width="2"/>
  <text x="382" y="622" font-family="monospace" font-size="14" fill="#666">20x100</text>
  <rect x="530" y="678" width="71" height="22" fill="none" stroke="#333" stroke-width="2"/>
  <text x="538" y="698" font-family="monospace" font-size="14" fill="#666">71x22</text>
  <rect x="533" y="666" width="65" height="22" fill="none" stroke="#333" stroke-width="2"/>
  <text x="541" y="686" font-family="monospace" font-size="14" fill="#666">65x22</text>
  <rect x="542" y="586" width="45" height="22" fill="none" stroke="#333" stroke-width="2"/>
  <text x="550" y="606" font-family="monospace" font-size="14" fill="#666">45x22</text>
  <rect x="542" y="586" width="45" height="32" fill="none" stroke="#333" stroke-width="2"/>
  <text x="550" y="606" font-family="monospace" font-size="14" fill="#666">45x32</text>
  <rect x="543" y="584" width="44" height="22" fill="none" stroke="#333" stroke-width="2"/>
  <text x="551" y="604" font-family="monospace" font-size="14" fill="#666">44x22</text>
  <rect x="543" y="584" width="44" height="32" fill="none" stroke="#333" stroke-width="2"/>
  <text x="551" y="604" font-family="monospace" font-size="14" fill="#666">44x32</text>
  <rect x="543" y="584" width="44" height="42" fill="none" stroke="#333" stroke-width="2"/>
  <text x="551" y="604" font-family="monospace" font-size="14" fill="#666">44x42</text>
  <rect x="544" y="580" width="41" height="24" fill="none" stroke="#333" stroke-width="2"/>
  <text x="552" y="600" font-family="monospace" font-size="14" fill="#666">41x24</text>
  <rect x="544" y="580" width="41" height="34" fill="none" stroke="#333" stroke-width="2"/>
  <text x="552" y="600" font-family="monospace" font-size="14" fill="#666">41x34</text>
  <rect x="544" y="580" width="41" height="44" fill="none" stroke="#333" stroke-width="2"/>
  <text x="552" y="600" font-family="monospace" font-size="14" fill="#666">41x44</text>
  <rect x="544" y="582" width="42" height="22" fill="none" stroke="#333" stroke-width="2"/>
  <text x="552" y="602" font-family="monospace" font-size="14" fill="#666">42x22</text>
  <rect x="544" y="582" width="42" height="32" fill="none" stroke="#333" stroke-width="2"/>
  <text x="552" y="602" font-family="monospace" font-size="14" fill="#666">42x32</text>
  <rect x="544" y="582" width="42" height="42" fill="none" stroke="#333" stroke-width="2"/>
  <text x="552" y="602" font-family="monospace" font-size="14" fill="#666">42x42</text>
  <rect x="545" y="570" width="40" height="22" fill="none" stroke="#333" stroke-width="2"/>
  <text x="553" y="590" font-family="monospace" font-size="14" fill="#666">40x22</text>
  <rect x="545" y="570" width="40" height="32" fill="none" stroke="#333" stroke-width="2"/>
  <text x="553" y="590" font-family="monospace" font-size="14" fill="#666">40x32</text>
  <rect x="545" y="570" width="40" height="42" fill="none" stroke="#333" stroke-width="2"/>
  <text x="553" y="590" font-family="monospace" font-size="14" fill="#666">40x42</text>
  <rect x="545" y="570" width="40" height="52" fill="#e8f0fe" stroke="#333" stroke-width="2"/>
  <text x="553" y="590" font-family="monospace" font-size="14" fill="#666">40x52</text>
  <rect x="545" y="572" width="39" height="22" fill="none" stroke="#333" stroke-width="2"/>
  <text x="553" y="592" font-family="monospace" font-size="14" fill="#666">39x22</text>
  <rect x="545" y="572" width="39" height="32" fill="none" stroke="#333" stroke-width="2"/>
  <text x="553" y="592" font-family="monospace" font-size="14" fill="#666">39x32</text>
  <rect x="545" y="572" width="39" height="42" fill="none" stroke="#333" stroke-width="2"/>
  <text x="553" y="592" font-family="monospace" font-size="14" fill="#666">39x42</text>
  <rect x="545" y="572" width="39" height="52" fill="#e8f0fe" stroke="#333" stroke-width="2"/>
  <text x="553" y="592" font-family="monospace" font-size="14" fill="#666">39x52</text>
  <rect x="545" y="574" width="40" height="22" fill="none" stroke="#333" stroke-width="2"/>
  <text x="553" y="594" font-family="monospace" font-size="14" fill="#666">40x22</text>
  <rect x="545" y="574" width="40" height="32" fill="none" stroke="#333" stroke-width="2"/>
  <text x="553" y="594" font-family="monospace" font-size="14" fill="#666">40x32</text>
  <rect x="545" y="574" width="40" height="42" fill="none" stroke="#333" stroke-width="2"/>
  <text x="553" y="594" font-family="monospace" font-size="14" fill="#666">40x42</text>
  <rect x="545" y="576" width="40" height="26" fill="none" stroke="#333" stroke-width="2"/>
  <text x="553" y="596" font-family="monospace" font-size="14" fill="#666">40x26</text>
  <rect x="545" y="576" width="40" height="36" fill="none" stroke="#333" stroke-width="2"/>
  <text x="553" y="596" font-family="monospace" font-size="14" fill="#666">40x36</text>
  <rect x="545" y="576" width="40" height="46" fill="none" stroke="#333" stroke-width="2"/>
  <text x="553" y="596" font-family="monospace" font-size="14" fill="#666">40x46</text>
  <rect x="545" y="578" width="40" height="24" fill="none" stroke="#333" stroke-width="2"/>
  <text x="553" y="598" font-family="monospace" font-size="14" fill="#666">40x24</text>
  <rect x="545" y="578" width="40" height="34" fill="none" stroke="#333" stroke-width="2"/>
  <text x="553" y="598" font-family="monospace" font-size="14" fill="#666">40x34</text>
  <rect x="545" y="578" width="40" height="44" fill="none" stroke="#333" stroke-width="2"/>
  <text x="553" y="598" font-family="monospace" font-size="14" fill="#666">40x44</text>
  <rect x="546" y="568" width="38" height="22" fill="none" stroke="#333" stroke-width="2"/>
  <text x="554" y="588" font-family="monospace" font-size="14" fill="#666">38x22</text>
  <rect x="546" y="568" width="38" height="32" fill="none" stroke="#333" stroke-width="2"/>
  <text x="554" y="588" font-family="monospace" font-size="14" fill="#666">38x32</text>
  <rect x="546" y="568" width="38" height="42" fill="none" stroke="#333" stroke-width="2"/>
  <text x="554" y="588" font-family="monospace" font-size="14" fill="#666">38x42</text>
  <rect x="546" y="568" width="38" height="52" fill="#e8f0fe" stroke="#333" stroke-width="2"/>
  <text x="554" y="588" font-family="monospace" font-size="14" fill="#666">38x52</text>
  <rect x="547" y="566" width="35" height="22" fill="none" stroke="#333" stroke-width="2"/>
  <text x="555" y="586" font-family="monospace" font-size="14" fill="#666">35x22</text>
  <rect x="547" y="566" width="35" height="32" fill="none" stroke="#333" stroke-width="2"/>
  <text x="555" y="586" font-family="monospace" font-size="14" fill="#666">35x32</text>
  <rect x="547" y="566" width="35" height="42" fill="none" stroke="#333" stroke-width="2"/>
  <text x="555" y="586" font-family="monospace" font-size="14" fill="#666">35x42</text>
  <rect x="547" y="566" width="35" height="52" fill="#e8f0fe" stroke="#333" stroke-width="2"/>
  <text x="555" y="586" font-family="monospace" font-size="14" fill="#666">35x52</text>
  <rect x="665" y="568" width="9" height="120" fill="#e8f0fe" stroke="#333" stroke-width="2"/>
  <text x="673" y="588" font-family="monospace" font-size="14" fill="#666">9x120</text>
  <rect x="665" y="572" width="168" height="114" fill="#e8f0fe" stroke="#333" stroke-width="2"/>
  <text x="673" y="592" font-family="monospace" font-size="14" fill="#666">168x114</text>
  <rect x="665" y="572" width="168" height="124" fill="#e8f0fe" stroke="#333" stroke-width="2"/>
  <text x="673" y="592" font-family="monospace" font-size="14" fill="#666">168x124</text>
  <rect x="665" y="574" width="12" height="114" fill="#e8f0fe" stroke="#333" stroke-width="2"/>
  <text x="673" y="594" font-family="monospace" font-size="14" fill="#666">12x114</text>
  <rect x="665" y="578" width="114" height="120" fill="#e8f0fe" stroke="#333" stroke-width="2"/>
  <text x="673" y="598" font-family="monospace" font-size="14" fill="#666">114x120</text>
  <rect x="665" y="582" width="168" height="104" fill="#e8f0fe" stroke="#333" stroke-width="2"/>
  <text x="673" y="602" font-family="monospace" font-size="14" fill="#666">168x104</text>
  <rect x="665" y="582" width="168" height="114" fill="#e8f0fe" stroke="#333" stroke-width="2"/>
  <text x="673" y="602" font-family="monospace" font-size="14" fill="#666">168x114</text>
  <rect x="665" y="584" width="168" height="102" fill="#e8f0fe" stroke="#333" stroke-width="2"/>
  <text x="673" y="604" font-family="monospace" font-size="14" fill="#666">168x102</text>
  <rect x="665" y="584" width="168" height="112" fill="#e8f0fe" stroke="#333" stroke-width="2"/>
  <text x="673" y="604" font-family="monospace" font-size="14" fill="#666">168x112</text>
  <rect x="675" y="568" width="111" height="28" fill="none" stroke="#333" stroke-width="2"/>
  <text x="683" y="588" font-family="monospace" font-size="14" fill="#666">111x28</text>
  <rect x="780" y="578" width="53" height="120" fill="#e8f0fe" stroke="#333" stroke-width="2"/>
  <text x="788" y="598" font-family="monospace" font-size="14" fill="#666">53x120</text>
  <rect x="786" y="566" width="47" height="132" fill="#e8f0fe" stroke="#333" stroke-width="2"/>
  <text x="794" y="586" font-family="monospace" font-size="14" fill="#666">47x132</text>
  <rect x="788" y="580" width="45" height="118" fill="#e8f0fe" stroke="#333" stroke-width="2"/>
  <text x="796" y="600" font-family="monospace" font-size="14" fill="#666">45x118</text>
  <rect x="1326" y="82" width="221" height="22" fill="none" stroke="#333" stroke-width="2"/>
  <text x="1334" y="102" font-family="monospace" font-size="14" fill="#666">221x22</text>
  <rect x="1536" y="20" width="12" height="3" fill="#333" rx="1"/>
  <rect x="35" y="26" width="10" height="3" fill="#333" rx="1"/>
  <rect x="97" y="26" width="11" height="3" fill="#333" rx="1"/>
  <rect x="66" y="34" width="10" height="3" fill="#333" rx="1"/>
  <rect x="34" y="36" width="11" height="3" fill="#333" rx="1"/>
  <rect x="50" y="36" width="9" height="3" fill="#333" rx="1"/>
  <rect x="82" y="36" width="10" height="3" fill="#333" rx="1"/>
  <rect x="97" y="36" width="11" height="3" fill="#333" rx="1"/>
  <rect x="304" y="54" width="9" height="3" fill="#333" rx="1"/>
  <rect x="319" y="54" width="10" height="3" fill="#333" rx="1"/>
  <rect x="337" y="54" width="9" height="3" fill="#333" rx="1"/>
  <rect x="391" y="54" width="9" height="3" fill="#333" rx="1"/>
  <rect x="411" y="54" width="11" height="3" fill="#333" rx="1"/>
  <rect x="1326" y="88" width="20" height="3" fill="#333" rx="1"/>
  <rect x="1355" y="88" width="192" height="3" fill="#333" rx="1"/>
  <rect x="1326" y="90" width="19" height="3" fill="#333" rx="1"/>
  <rect x="1357" y="90" width="16" height="3" fill="#333" rx="1"/>
  <rect x="1378" y="90" width="27" height="3" fill="#333" rx="1"/>
  <rect x="1326" y="92" width="19" height="3" fill="#333" rx="1"/>
  <rect x="1357" y="92" width="16" height="3" fill="#333" rx="1"/>
  <rect x="1374" y="92" width="19" height="3" fill="#333" rx="1"/>
  <rect x="1394" y="92" width="19" height="3" fill="#333" rx="1"/>
  <rect x="1426" y="92" width="12" height="3" fill="#333" rx="1"/>
  <rect x="38" y="114" width="9" height="3" fill="#333" rx="1"/>
  <rect x="35" y="130" width="14" height="3" fill="#333" rx="1"/>
  <rect x="23" y="248" width="10" height="3" fill="#333" rx="1"/>
  <rect x="209" y="248" width="9" height="3" fill="#333" rx="1"/>
  <rect x="22" y="276" width="16" height="3" fill="#333" rx="1"/>
  <rect x="22" y="290" width="16" height="3" fill="#333" rx="1"/>
  <rect x="25" y="500" width="9" height="3" fill="#333" rx="1"/>
  <rect x="22" y="506" width="15" height="3" fill="#333" rx="1"/>
</svg>