<svg xmlns="http://www.w3.org/2000/svg" viewBox="0 0 1536 1024" width="512" height="341">
  <rect x="0" y="0" width="1536" height="1024" fill="#f8f9fa"/>
  <rect x="12" y="574" width="248" height="22" fill="none" stroke="#333" stroke-width="2"/>
  <text x="20" y="594" font-family="monospace" font-size="14" fill="#666">248x22</text>
  <rect x="12" y="574" width="248" height="32" fill="none" stroke="#333" stroke-width="2"/>
  <text x="20" y="594" font-family="monospace" font-size="14" fill="#666">248x32</text>
  <rect x="13" y="572" width="246" height="24" fill="none" stroke="#333" stroke-width="2"/>
  <text x="21" y="592" font-family="monospace" font-size="14" fill="#666">246x24</text>
  <rect x="13" y="572" width="246" height="34" fill="none" stroke="#333" stroke-width="2"/>
  <text x="21" y="592" font-family="monospace" font-size="14" fill="#666">246x34</text>
  <rect x="14" y="570" width="243" height="26" fill="none" stroke="#333" stroke-width="2"/>
  <text x="22" y="590" font-family="monospace" font-size="14" fill="#666">243x26</text>
  <rect x="14" y="570" width="243" height="36" fill="none" stroke="#333" stroke-width="2"/>
  <text x="22" y="590" font-family="monospace" font-size="14" fill="#666">243x36</text>
  <rect x="1202" y="850" width="182" height="24" fill="none" stroke="#333" stroke-width="2"/>
  <text x="1210" y="870" font-family="monospace" font-size="14" fill="#666">182x24</text>
  <rect x="1202" y="850" width="182" height="34" fill="none" stroke="#333" stroke-width="2"/>
  <text x="1210" y="870" font-family="monospace" font-size="14" fill="#666">182x34</text>
  <rect x="1202" y="852" width="182" height="22" fill="none" stroke="#333" stroke-width="2"/>
  <text x="1210" y="872" font-family="monospace" font-size="14" fill="#666">182x22</text>
  <rect x="1202" y="852" width="182" height="32" fill="none" stroke="#333" stroke-width="2"/>
  <text x="1210" y="872" font-family="monospace" font-size="14" fill="#666">182x32</text>
  <rect x="1203" y="848" width="180" height="26" fill="none" stroke="#333" stroke-width="2"/>
  <text x="1211" y="868" font-family="monospace" font-size="14" fill="#666">180x26</text>
  <rect x="1203" y="848" width="180" height="36" fill="none" stroke="#333" stroke-width="2"/>
  <text x="1211" y="868" font-family="monospace" font-size="14" fill="#666">180x36</text>
  <rect x="1204" y="846" width="178" height="28" fill="none" stroke="#333" stroke-width="2"/>
  <text x="1212" y="866" font-family="monospace" font-size="14" fill="#666">178x28</text>
  <rect x="1204" y="846" width="178" height="38" fill="none" stroke="#333" stroke-width="2"/>
  <text x="1212" y="866" font-family="monospace" font-size="14" fill="#666">178x38</text>
  <rect x="1208" y="844" width="171" height="30" fill="none" stroke="#333" stroke-width="2"/>
  <text x="1216" y="864" font-family="monospace" font-size="14" fill="#666">171x30</text>
  <rect x="1208" y="844" width="171" height="40" fill="none" stroke="#333" stroke-width="2"/>
  <text x="1216" y="864" font-family="monospace" font-size="14" fill="#666">171x40</text>
  <rect x="35" y="28" width="10" height="3" fill="#333" rx="1"/>
  <rect x="109" y="28" width="10" height="3" fill="#333" rx="1"/>
  <rect x="1421" y="28" width="9" height="3" fill="#333" rx="1"/>
  <rect x="1419" y="30" width="13" height="3" fill="#333" rx="1"/>
  <rect x="1417" y="34" width="10" height="3" fill="#333" rx="1"/>
  <rect x="70" y="36" width="11" height="3" fill="#333" rx="1"/>
  <rect x="485" y="36" width="9" height="3" fill="#333" rx="1"/>
  <rect x="538" y="36" width="13" height="3" fill="#333" rx="1"/>
  <rect x="329" y="80" width="10" height="3" fill="#333" rx="1"/>
  <rect x="344" y="80" width="12" height="3" fill="#333" rx="1"/>
  <rect x="365" y="80" width="9" height="3" fill="#333" rx="1"/>
  <rect x="383" y="80" width="10" height="3" fill="#333" rx="1"/>
  <rect x="429" y="80" width="12" height="3" fill="#333" rx="1"/>
  <rect x="154" y="110" width="11" height="3" fill="#333" rx="1"/>
  <rect x="117" y="112" width="11" height="3" fill="#333" rx="1"/>
  <rect x="135" y="114" width="9" height="3" fill="#333" rx="1"/>
  <rect x="532" y="160" width="10" height="3" fill="#333" rx="1"/>
  <rect x="523" y="168" width="9" height="3" fill="#333" rx="1"/>
  <rect x="484" y="170" width="9" height="3" fill="#333" rx="1"/>
  <rect x="549" y="170" width="9" height="3" fill="#333" rx="1"/>
  <rect x="573" y="170" width="9" height="3" fill="#333" rx="1"/>
  <rect x="718" y="256" width="12" height="3" fill="#333" rx="1"/>
  <rect x="594" y="264" width="15" height="3" fill="#333" rx="1"/>
  <rect x="33" y="292" width="10" height="3" fill="#333" rx="1"/>
  <rect x="31" y="296" width="13" height="3" fill="#333" rx="1"/>
  <rect x="107" y="336" width="9" height="3" fill="#333" rx="1"/>
  <rect x="476" y="340" width="11" height="3" fill="#333" rx="1"/>
  <rect x="512" y="340" width="11" height="3" fill="#333" rx="1"/>
  <rect x="528" y="378" width="9" height="3" fill="#333" rx="1"/>
  <rect x="32" y="380" width="16" height="3" fill="#333" rx="1"/>
</svg>