<svg xmlns="http://www.w3.org/2000/svg" viewBox="0 0 3000 2000" width="1000" height="666">
  <rect x="0" y="0" width="3000" height="2000" fill="#f8f9fa"/>
  <rect x="1092" y="302" width="12" height="22" fill="none" stroke="#333" stroke-width="2"/>
  <text x="1100" y="322" font-family="monospace" font-size="14" fill="#666">12x22</text>
  <rect x="1131" y="308" width="10" height="22" fill="none" stroke="#333" stroke-width="2"/>
  <text x="1139" y="328" font-family="monospace" font-size="14" fill="#666">10x22</text>
  <rect x="1169" y="312" width="9" height="24" fill="none" stroke="#333" stroke-width="2"/>
  <text x="1177" y="332" font-family="monospace" font-size="14" fill="#666">9x24</text>
  <rect x="1544" y="286" width="16" height="26" fill="none" stroke="#333" stroke-width="2"/>
  <text x="1552" y="306" font-family="monospace" font-size="14" fill="#666">16x26</text>
  <rect x="1083" y="48" width="9" height="3" fill="#333" rx="1"/>
  <rect x="1136" y="48" width="9" height="3" fill="#333" rx="1"/>
  <rect x="1096" y="58" width="9" height="3" fill="#333" rx="1"/>
  <rect x="1634" y="64" width="161" height="3" fill="#333" rx="1"/>
  <rect x="1873" y="68" width="20" height="3" fill="#333" rx="1"/>
  <rect x="1090" y="276" width="58" height="3" fill="#333" rx="1"/>
  <rect x="1519" y="276" width="57" height="3" fill="#333" rx="1"/>
  <rect x="1104" y="282" width="10" height="3" fill="#333" rx="1"/>
  <rect x="1115" y="286" width="16" height="3" fill="#333" rx="1"/>
  <rect x="1544" y="286" width="16" height="3" fill="#333" rx="1"/>
  <rect x="1092" y="302" width="12" height="3" fill="#333" rx="1"/>
  <rect x="1107" y="304" width="9" height="3" fill="#333" rx="1"/>
  <rect x="1169" y="304" width="9" height="3" fill="#333" rx="1"/>
  <rect x="1181" y="304" width="10" height="3" fill="#333" rx="1"/>
  <rect x="1536" y="304" width="9" height="3" fill="#333" rx="1"/>
  <rect x="1093" y="312" width="10" height="3" fill="#333" rx="1"/>
  <rect x="1107" y="312" width="9" height="3" fill="#333" rx="1"/>
  <rect x="1169" y="312" width="9" height="3" fill="#333" rx="1"/>
  <rect x="1536" y="312" width="9" height="3" fill="#333" rx="1"/>
  <rect x="1549" y="312" width="10" height="3" fill="#333" rx="1"/>
  <rect x="1170" y="336" width="9" height="3" fill="#333" rx="1"/>
  <rect x="1091" y="346" width="123" height="3" fill="#333" rx="1"/>
  <rect x="1519" y="346" width="123" height="3" fill="#333" rx="1"/>
  <rect x="1239" y="474" width="94" height="3" fill="#333" rx="1"/>
  <rect x="1668" y="474" width="93" height="3" fill="#333" rx="1"/>
  <rect x="1135" y="514" width="9" height="3" fill="#333" rx="1"/>
  <rect x="1168" y="514" width="9" height="3" fill="#333" rx="1"/>
  <rect x="1094" y="524" width="139" height="3" fill="#333" rx="1"/>
  <rect x="1100" y="786" width="162" height="3" fill="#333" rx="1"/>
  <rect x="1300" y="786" width="162" height="3" fill="#333" rx="1"/>
  <rect x="1500" y="786" width="162" height="3" fill="#333" rx="1"/>
  <rect x="1700" y="786" width="190" height="3" fill="#333" rx="1"/>
</svg>