<svg xmlns="http://www.w3.org/2000/svg" viewBox="0 0 3000 2000" width="1000" height="666">
  <rect x="0" y="0" width="3000" height="2000" fill="#f8f9fa"/>
  <rect x="930" y="0" width="1127" height="100" fill="#e8f0fe" stroke="#333" stroke-width="2"/>
  <text x="938" y="20" font-family="monospace" font-size="14" fill="#666">1127x100</text>
  <rect x="979" y="1200" width="199" height="34" fill="none" stroke="#333" stroke-width="2"/>
  <text x="987" y="1220" font-family="monospace" font-size="14" fill="#666">199x34</text>
  <rect x="1065" y="560" width="37" height="22" fill="none" stroke="#333" stroke-width="2"/>
  <text x="1073" y="580" font-family="monospace" font-size="14" fill="#666">37x22</text>
  <rect x="1245" y="1334" width="222" height="28" fill="none" stroke="#333" stroke-width="2"/>
  <text x="1253" y="1354" font-family="monospace" font-size="14" fill="#666">222x28</text>
  <rect x="1373" y="1440" width="36" height="22" fill="none" stroke="#333" stroke-width="2"/>
  <text x="1381" y="1460" font-family="monospace" font-size="14" fill="#666">36x22</text>
  <rect x="1373" y="1440" width="36" height="32" fill="none" stroke="#333" stroke-width="2"/>
  <text x="1381" y="1460" font-family="monospace" font-size="14" fill="#666">36x32</text>
  <rect x="1374" y="1438" width="34" height="22" fill="none" stroke="#333" stroke-width="2"/>
  <text x="1382" y="1458" font-family="monospace" font-size="14" fill="#666">34x22</text>
  <rect x="1374" y="1438" width="34" height="32" fill="none" stroke="#333" stroke-width="2"/>
  <text x="1382" y="1458" font-family="monospace" font-size="14" fill="#666">34x32</text>
  <rect x="1785" y="1334" width="222" height="28" fill="none" stroke="#333" stroke-width="2"/>
  <text x="1793" y="1354" font-family="monospace" font-size="14" fill="#666">222x28</text>
  <rect x="1537" y="14" width="12" height="3" fill="#333" rx="1"/>
  <rect x="1583" y="16" width="10" height="3" fill="#333" rx="1"/>
  <rect x="1410" y="18" width="10" height="3" fill="#333" rx="1"/>
  <rect x="1482" y="18" width="10" height="3" fill="#333" rx="1"/>
  <rect x="1684" y="18" width="9" height="3" fill="#333" rx="1"/>
  <rect x="1010" y="56" width="9" height="3" fill="#333" rx="1"/>
  <rect x="957" y="58" width="11" height="3" fill="#333" rx="1"/>
  <rect x="983" y="64" width="10" height="3" fill="#333" rx="1"/>
  <rect x="1098" y="66" width="11" height="3" fill="#333" rx="1"/>
  <rect x="1111" y="66" width="11" height="3" fill="#333" rx="1"/>
  <rect x="1985" y="70" width="30" height="3" fill="#333" rx="1"/>
  <rect x="1256" y="72" width="9" height="3" fill="#333" rx="1"/>
  <rect x="1985" y="84" width="30" height="3" fill="#333" rx="1"/>
  <rect x="962" y="148" width="14" height="3" fill="#333" rx="1"/>
  <rect x="1170" y="148" width="14" height="3" fill="#333" rx="1"/>
  <rect x="982" y="152" width="9" height="3" fill="#333" rx="1"/>
  <rect x="1025" y="152" width="10" height="3" fill="#333" rx="1"/>
  <rect x="1129" y="152" width="10" height="3" fill="#333" rx="1"/>
  <rect x="962" y="156" width="14" height="3" fill="#333" rx="1"/>
  <rect x="1010" y="156" width="12" height="3" fill="#333" rx="1"/>
  <rect x="1077" y="202" width="58" height="3" fill="#333" rx="1"/>
  <rect x="1165" y="202" width="45" height="3" fill="#333" rx="1"/>
  <rect x="978" y="418" width="13" height="3" fill="#333" rx="1"/>
  <rect x="978" y="420" width="14" height="3" fill="#333" rx="1"/>
  <rect x="978" y="422" width="14" height="3" fill="#333" rx="1"/>
  <rect x="978" y="424" width="14" height="3" fill="#333" rx="1"/>
  <rect x="978" y="426" width="14" height="3" fill="#333" rx="1"/>
  <rect x="1245" y="502" width="9" height="3" fill="#333" rx="1"/>
  <rect x="1853" y="504" width="9" height="3" fill="#333" rx="1"/>
  <rect x="1300" y="538" width="9" height="3" fill="#333" rx="1"/>
  <rect x="1322" y="538" width="9" height="3" fill="#333" rx="1"/>
  <rect x="1840" y="538" width="9" height="3" fill="#333" rx="1"/>
  <rect x="1862" y="538" width="9" height="3" fill="#333" rx="1"/>
  <rect x="1332" y="546" width="9" height="3" fill="#333" rx="1"/>
</svg>